<mxfile host="app.diagrams.net" modified="2024-07-23T01:52:01.539Z" agent="Mozilla/5.0 (Windows NT 10.0; Win64; x64) AppleWebKit/537.36 (KHTML, like Gecko) Chrome/125.0.0.0 Safari/537.36 Edg/125.0.0.0" etag="Jch5_AgRdx3rjMYBWckE" version="24.7.1" type="device" pages="6">
  <diagram name="Page-1" id="sSu1KrXqH4oslk-i0rEA">
    <mxGraphModel dx="1050" dy="541" grid="1" gridSize="10" guides="1" tooltips="1" connect="1" arrows="1" fold="1" page="1" pageScale="1" pageWidth="827" pageHeight="1169" math="0" shadow="0">
      <root>
        <mxCell id="0" />
        <mxCell id="1" parent="0" />
        <mxCell id="E2Us5H4zCGEMR0FaRFGH-1" value="" style="edgeStyle=orthogonalEdgeStyle;rounded=0;orthogonalLoop=1;jettySize=auto;html=1;" edge="1" parent="1" source="E2Us5H4zCGEMR0FaRFGH-2" target="E2Us5H4zCGEMR0FaRFGH-4">
          <mxGeometry relative="1" as="geometry" />
        </mxCell>
        <mxCell id="E2Us5H4zCGEMR0FaRFGH-2" value="system libraries&lt;div&gt;iostream&lt;/div&gt;&lt;div&gt;&lt;span style=&quot;background-color: initial;&quot;&gt;ctime&lt;/span&gt;&lt;/div&gt;&lt;div&gt;cstdlib&lt;br&gt;&lt;/div&gt;&lt;div&gt;fstream&lt;br&gt;&lt;/div&gt;&lt;div&gt;iomanip&lt;/div&gt;&lt;div&gt;string&lt;br&gt;&lt;/div&gt;&lt;div&gt;cmath&lt;br&gt;&lt;/div&gt;&lt;div&gt;Standard Namespace&lt;/div&gt;" style="rounded=1;whiteSpace=wrap;html=1;" vertex="1" parent="1">
          <mxGeometry x="50" y="150" width="120" height="140" as="geometry" />
        </mxCell>
        <mxCell id="E2Us5H4zCGEMR0FaRFGH-3" value="" style="edgeStyle=orthogonalEdgeStyle;rounded=0;orthogonalLoop=1;jettySize=auto;html=1;" edge="1" parent="1" source="E2Us5H4zCGEMR0FaRFGH-4" target="E2Us5H4zCGEMR0FaRFGH-6">
          <mxGeometry relative="1" as="geometry" />
        </mxCell>
        <mxCell id="E2Us5H4zCGEMR0FaRFGH-4" value="user libraries&lt;div&gt;none&lt;/div&gt;" style="whiteSpace=wrap;html=1;rounded=1;" vertex="1" parent="1">
          <mxGeometry x="50" y="340" width="120" height="60" as="geometry" />
        </mxCell>
        <mxCell id="E2Us5H4zCGEMR0FaRFGH-5" value="" style="edgeStyle=orthogonalEdgeStyle;rounded=0;orthogonalLoop=1;jettySize=auto;html=1;" edge="1" parent="1" source="E2Us5H4zCGEMR0FaRFGH-6" target="E2Us5H4zCGEMR0FaRFGH-7">
          <mxGeometry relative="1" as="geometry" />
        </mxCell>
        <mxCell id="E2Us5H4zCGEMR0FaRFGH-6" value="Global constants&lt;div&gt;none&lt;/div&gt;" style="whiteSpace=wrap;html=1;rounded=1;" vertex="1" parent="1">
          <mxGeometry x="50" y="440" width="120" height="60" as="geometry" />
        </mxCell>
        <mxCell id="E2Us5H4zCGEMR0FaRFGH-11" style="edgeStyle=orthogonalEdgeStyle;rounded=0;orthogonalLoop=1;jettySize=auto;html=1;exitX=0.5;exitY=1;exitDx=0;exitDy=0;entryX=0.5;entryY=0;entryDx=0;entryDy=0;" edge="1" parent="1" source="E2Us5H4zCGEMR0FaRFGH-7" target="E2Us5H4zCGEMR0FaRFGH-10">
          <mxGeometry relative="1" as="geometry">
            <Array as="points">
              <mxPoint x="110" y="620" />
              <mxPoint x="230" y="620" />
              <mxPoint x="230" y="30" />
              <mxPoint x="368" y="30" />
            </Array>
          </mxGeometry>
        </mxCell>
        <mxCell id="E2Us5H4zCGEMR0FaRFGH-7" value="Function prototypes&lt;div&gt;none&lt;/div&gt;" style="whiteSpace=wrap;html=1;rounded=1;" vertex="1" parent="1">
          <mxGeometry x="50" y="540" width="120" height="60" as="geometry" />
        </mxCell>
        <mxCell id="E2Us5H4zCGEMR0FaRFGH-8" style="edgeStyle=orthogonalEdgeStyle;rounded=0;orthogonalLoop=1;jettySize=auto;html=1;exitX=0.5;exitY=1;exitDx=0;exitDy=0;entryX=0.5;entryY=0;entryDx=0;entryDy=0;" edge="1" parent="1" source="E2Us5H4zCGEMR0FaRFGH-9" target="E2Us5H4zCGEMR0FaRFGH-2">
          <mxGeometry relative="1" as="geometry" />
        </mxCell>
        <UserObject label="&lt;b&gt;&amp;nbsp;Author&lt;/b&gt;: Ireoluwa Dairo&lt;br&gt;&lt;b&gt;Created on &lt;/b&gt;July 21 4:18 pm&lt;br&gt;&lt;b&gt;&amp;nbsp;Purpose&lt;/b&gt;:&amp;nbsp;a game of Yahtzee&lt;div&gt;&lt;br&gt;&lt;/div&gt;" link="/* &#xa; * File:   main.cpp&#xa; * Author: Ireoluwa Dairo&#xa; * Created on January 15 4:18 pm&#xa; * Purpose:  Cross one-side or the other&#xa; */" id="E2Us5H4zCGEMR0FaRFGH-9">
          <mxCell style="whiteSpace=wrap;html=1;rounded=1;" vertex="1" parent="1">
            <mxGeometry x="10" y="20" width="200" height="80" as="geometry" />
          </mxCell>
        </UserObject>
        <mxCell id="E2Us5H4zCGEMR0FaRFGH-13" value="" style="edgeStyle=orthogonalEdgeStyle;rounded=0;orthogonalLoop=1;jettySize=auto;html=1;" edge="1" parent="1" source="E2Us5H4zCGEMR0FaRFGH-10" target="E2Us5H4zCGEMR0FaRFGH-12">
          <mxGeometry relative="1" as="geometry" />
        </mxCell>
        <mxCell id="E2Us5H4zCGEMR0FaRFGH-10" value="Main&amp;nbsp;" style="ellipse;whiteSpace=wrap;html=1;" vertex="1" parent="1">
          <mxGeometry x="312.74" y="50" width="110" height="50" as="geometry" />
        </mxCell>
        <mxCell id="E2Us5H4zCGEMR0FaRFGH-15" value="" style="edgeStyle=orthogonalEdgeStyle;rounded=0;orthogonalLoop=1;jettySize=auto;html=1;" edge="1" parent="1" source="E2Us5H4zCGEMR0FaRFGH-12" target="E2Us5H4zCGEMR0FaRFGH-14">
          <mxGeometry relative="1" as="geometry" />
        </mxCell>
        <mxCell id="E2Us5H4zCGEMR0FaRFGH-12" value="Set Random Number Seed with Time" style="whiteSpace=wrap;html=1;rounded=1;" vertex="1" parent="1">
          <mxGeometry x="307.24" y="130" width="121" height="40" as="geometry" />
        </mxCell>
        <mxCell id="E2Us5H4zCGEMR0FaRFGH-17" value="" style="edgeStyle=orthogonalEdgeStyle;rounded=0;orthogonalLoop=1;jettySize=auto;html=1;" edge="1" parent="1" source="E2Us5H4zCGEMR0FaRFGH-14" target="E2Us5H4zCGEMR0FaRFGH-16">
          <mxGeometry relative="1" as="geometry" />
        </mxCell>
        <mxCell id="E2Us5H4zCGEMR0FaRFGH-14" value="Declare&lt;div&gt;&amp;nbsp;in and out file stream&lt;/div&gt;" style="whiteSpace=wrap;html=1;rounded=1;" vertex="1" parent="1">
          <mxGeometry x="307.74" y="200" width="120.5" height="40" as="geometry" />
        </mxCell>
        <mxCell id="E2Us5H4zCGEMR0FaRFGH-19" value="" style="edgeStyle=orthogonalEdgeStyle;rounded=0;orthogonalLoop=1;jettySize=auto;html=1;" edge="1" parent="1" source="E2Us5H4zCGEMR0FaRFGH-16" target="E2Us5H4zCGEMR0FaRFGH-18">
          <mxGeometry relative="1" as="geometry" />
        </mxCell>
        <mxCell id="E2Us5H4zCGEMR0FaRFGH-16" value="Declare&lt;div&gt;Md = 6, mnD = 1,&lt;br&gt;&lt;/div&gt;&lt;div&gt;GChce, Chce, sChce, plymode, shwRuls, ldgFile,&lt;br&gt;&lt;/div&gt;&lt;div&gt;d1, d2, d3, d4, d5, rllsLft, ttlScre, y,&lt;br&gt;&lt;/div&gt;&lt;div&gt;h1, h2, h3, h4, h5,&lt;br&gt;&lt;/div&gt;&lt;div&gt;ascore,&lt;br&gt;&lt;/div&gt;&lt;div&gt;Yname, fname, line&lt;br&gt;&lt;/div&gt;" style="whiteSpace=wrap;html=1;rounded=1;" vertex="1" parent="1">
          <mxGeometry x="262.61" y="280" width="210.25" height="120" as="geometry" />
        </mxCell>
        <mxCell id="E2Us5H4zCGEMR0FaRFGH-21" value="" style="edgeStyle=orthogonalEdgeStyle;rounded=0;orthogonalLoop=1;jettySize=auto;html=1;" edge="1" parent="1" source="E2Us5H4zCGEMR0FaRFGH-18" target="E2Us5H4zCGEMR0FaRFGH-20">
          <mxGeometry relative="1" as="geometry" />
        </mxCell>
        <mxCell id="E2Us5H4zCGEMR0FaRFGH-18" value="Initialize&lt;div&gt;&lt;div&gt;out.open(fname, ios::out);&lt;/div&gt;&lt;div&gt;&amp;nbsp; &amp;nbsp; in.open(fname, ios::in);&lt;/div&gt;&lt;div&gt;&amp;nbsp; &amp;nbsp; ttlScre = 0;&lt;/div&gt;&lt;/div&gt;" style="whiteSpace=wrap;html=1;rounded=1;" vertex="1" parent="1">
          <mxGeometry x="287.48" y="440" width="161.01" height="80" as="geometry" />
        </mxCell>
        <mxCell id="E2Us5H4zCGEMR0FaRFGH-64" style="edgeStyle=orthogonalEdgeStyle;rounded=0;orthogonalLoop=1;jettySize=auto;html=1;exitX=0.5;exitY=1;exitDx=0;exitDy=0;entryX=0.5;entryY=0;entryDx=0;entryDy=0;" edge="1" parent="1" source="E2Us5H4zCGEMR0FaRFGH-20" target="E2Us5H4zCGEMR0FaRFGH-22">
          <mxGeometry relative="1" as="geometry" />
        </mxCell>
        <mxCell id="E2Us5H4zCGEMR0FaRFGH-20" value="&lt;div&gt;Welcome to Yahtzee!&lt;br&gt;&lt;/div&gt;&lt;div&gt;Enter Username:&lt;br&gt;&lt;/div&gt;&lt;div&gt;Output personalized welcome message&lt;br&gt;&lt;/div&gt;" style="shape=parallelogram;perimeter=parallelogramPerimeter;whiteSpace=wrap;html=1;fixedSize=1;rounded=1;" vertex="1" parent="1">
          <mxGeometry x="250" y="560" width="235.49" height="60" as="geometry" />
        </mxCell>
        <mxCell id="E2Us5H4zCGEMR0FaRFGH-65" style="edgeStyle=orthogonalEdgeStyle;rounded=0;orthogonalLoop=1;jettySize=auto;html=1;exitX=0.5;exitY=1;exitDx=0;exitDy=0;entryX=0.5;entryY=0;entryDx=0;entryDy=0;" edge="1" parent="1" source="E2Us5H4zCGEMR0FaRFGH-22" target="E2Us5H4zCGEMR0FaRFGH-24">
          <mxGeometry relative="1" as="geometry" />
        </mxCell>
        <mxCell id="E2Us5H4zCGEMR0FaRFGH-22" value="Do you want to load a previous        |&lt;br&gt;| game file? (Y/N):&lt;div&gt;&lt;br&gt;ldgFile&amp;nbsp;&lt;br&gt;&lt;/div&gt;" style="shape=parallelogram;perimeter=parallelogramPerimeter;whiteSpace=wrap;html=1;fixedSize=1;rounded=1;" vertex="1" parent="1">
          <mxGeometry x="262.99" y="680" width="210" height="70" as="geometry" />
        </mxCell>
        <mxCell id="E2Us5H4zCGEMR0FaRFGH-50" value="" style="edgeStyle=orthogonalEdgeStyle;rounded=0;orthogonalLoop=1;jettySize=auto;html=1;" edge="1" parent="1" source="E2Us5H4zCGEMR0FaRFGH-24" target="E2Us5H4zCGEMR0FaRFGH-49">
          <mxGeometry relative="1" as="geometry" />
        </mxCell>
        <mxCell id="E2Us5H4zCGEMR0FaRFGH-70" style="edgeStyle=orthogonalEdgeStyle;rounded=0;orthogonalLoop=1;jettySize=auto;html=1;exitX=0.5;exitY=1;exitDx=0;exitDy=0;" edge="1" parent="1" source="E2Us5H4zCGEMR0FaRFGH-24" target="E2Us5H4zCGEMR0FaRFGH-58">
          <mxGeometry relative="1" as="geometry">
            <Array as="points">
              <mxPoint x="368" y="910" />
              <mxPoint x="63" y="910" />
            </Array>
          </mxGeometry>
        </mxCell>
        <mxCell id="E2Us5H4zCGEMR0FaRFGH-24" value="ldgFile != &#39;Y&#39; &amp;amp;&amp;amp; ldgFile != &#39;n&#39;" style="rhombus;whiteSpace=wrap;html=1;rounded=1;" vertex="1" parent="1">
          <mxGeometry x="272.3" y="803.75" width="191.38" height="87.5" as="geometry" />
        </mxCell>
        <mxCell id="E2Us5H4zCGEMR0FaRFGH-44" value="True" style="text;html=1;align=center;verticalAlign=middle;resizable=0;points=[];autosize=1;strokeColor=none;fillColor=none;" vertex="1" parent="1">
          <mxGeometry x="590" y="820" width="50" height="30" as="geometry" />
        </mxCell>
        <mxCell id="E2Us5H4zCGEMR0FaRFGH-66" style="edgeStyle=orthogonalEdgeStyle;rounded=0;orthogonalLoop=1;jettySize=auto;html=1;exitX=1;exitY=0.5;exitDx=0;exitDy=0;entryX=0.5;entryY=0;entryDx=0;entryDy=0;" edge="1" parent="1" source="E2Us5H4zCGEMR0FaRFGH-49" target="E2Us5H4zCGEMR0FaRFGH-24">
          <mxGeometry relative="1" as="geometry">
            <Array as="points">
              <mxPoint x="810" y="848" />
              <mxPoint x="810" y="780" />
              <mxPoint x="368" y="780" />
            </Array>
          </mxGeometry>
        </mxCell>
        <mxCell id="E2Us5H4zCGEMR0FaRFGH-49" value="Invalid Input. Input &#39;Y&#39; or &#39;N&#39;:" style="shape=parallelogram;perimeter=parallelogramPerimeter;whiteSpace=wrap;html=1;fixedSize=1;rounded=1;" vertex="1" parent="1">
          <mxGeometry x="630" y="820" width="170.01" height="55" as="geometry" />
        </mxCell>
        <mxCell id="E2Us5H4zCGEMR0FaRFGH-61" value="" style="edgeStyle=orthogonalEdgeStyle;rounded=0;orthogonalLoop=1;jettySize=auto;html=1;" edge="1" parent="1" source="E2Us5H4zCGEMR0FaRFGH-58" target="E2Us5H4zCGEMR0FaRFGH-60">
          <mxGeometry relative="1" as="geometry" />
        </mxCell>
        <mxCell id="E2Us5H4zCGEMR0FaRFGH-72" style="edgeStyle=orthogonalEdgeStyle;rounded=0;orthogonalLoop=1;jettySize=auto;html=1;exitX=1;exitY=0.5;exitDx=0;exitDy=0;" edge="1" parent="1" source="E2Us5H4zCGEMR0FaRFGH-58" target="E2Us5H4zCGEMR0FaRFGH-71">
          <mxGeometry relative="1" as="geometry" />
        </mxCell>
        <mxCell id="E2Us5H4zCGEMR0FaRFGH-58" value="ldgFile == &#39;Y&#39;" style="rhombus;whiteSpace=wrap;html=1;rounded=1;" vertex="1" parent="1">
          <mxGeometry x="20" y="922.5" width="86.63" height="80" as="geometry" />
        </mxCell>
        <mxCell id="E2Us5H4zCGEMR0FaRFGH-75" style="edgeStyle=orthogonalEdgeStyle;rounded=0;orthogonalLoop=1;jettySize=auto;html=1;exitX=1;exitY=0.5;exitDx=0;exitDy=0;entryX=0;entryY=0.5;entryDx=0;entryDy=0;" edge="1" parent="1" source="E2Us5H4zCGEMR0FaRFGH-60" target="E2Us5H4zCGEMR0FaRFGH-73">
          <mxGeometry relative="1" as="geometry" />
        </mxCell>
        <mxCell id="E2Us5H4zCGEMR0FaRFGH-60" value="Enter the filename to load the game results:" style="shape=parallelogram;perimeter=parallelogramPerimeter;whiteSpace=wrap;html=1;fixedSize=1;rounded=1;" vertex="1" parent="1">
          <mxGeometry y="1040" width="226.69" height="60" as="geometry" />
        </mxCell>
        <mxCell id="E2Us5H4zCGEMR0FaRFGH-52" value="False" style="text;html=1;align=center;verticalAlign=middle;resizable=0;points=[];autosize=1;strokeColor=none;fillColor=none;" vertex="1" parent="1">
          <mxGeometry x="140" y="880" width="50" height="30" as="geometry" />
        </mxCell>
        <mxCell id="E2Us5H4zCGEMR0FaRFGH-68" value="False" style="text;html=1;align=center;verticalAlign=middle;resizable=0;points=[];autosize=1;strokeColor=none;fillColor=none;" vertex="1" parent="1">
          <mxGeometry x="106.63" y="932.5" width="50" height="30" as="geometry" />
        </mxCell>
        <mxCell id="E2Us5H4zCGEMR0FaRFGH-71" value="Page 2" style="ellipse;whiteSpace=wrap;html=1;aspect=fixed;" vertex="1" parent="1">
          <mxGeometry x="182.60999999999999" y="922.5" width="80" height="80" as="geometry" />
        </mxCell>
        <mxCell id="E2Us5H4zCGEMR0FaRFGH-79" value="" style="edgeStyle=orthogonalEdgeStyle;rounded=0;orthogonalLoop=1;jettySize=auto;html=1;" edge="1" parent="1" source="E2Us5H4zCGEMR0FaRFGH-73" target="E2Us5H4zCGEMR0FaRFGH-78">
          <mxGeometry relative="1" as="geometry" />
        </mxCell>
        <mxCell id="E2Us5H4zCGEMR0FaRFGH-84" value="" style="edgeStyle=orthogonalEdgeStyle;rounded=0;orthogonalLoop=1;jettySize=auto;html=1;" edge="1" parent="1" source="E2Us5H4zCGEMR0FaRFGH-73" target="E2Us5H4zCGEMR0FaRFGH-83">
          <mxGeometry relative="1" as="geometry" />
        </mxCell>
        <mxCell id="E2Us5H4zCGEMR0FaRFGH-73" value="is file open" style="rhombus;whiteSpace=wrap;html=1;rounded=1;" vertex="1" parent="1">
          <mxGeometry x="334.005" y="932.5" width="80" height="80" as="geometry" />
        </mxCell>
        <mxCell id="E2Us5H4zCGEMR0FaRFGH-100" value="" style="edgeStyle=orthogonalEdgeStyle;rounded=0;orthogonalLoop=1;jettySize=auto;html=1;" edge="1" parent="1" source="E2Us5H4zCGEMR0FaRFGH-78" target="E2Us5H4zCGEMR0FaRFGH-98">
          <mxGeometry relative="1" as="geometry" />
        </mxCell>
        <mxCell id="E2Us5H4zCGEMR0FaRFGH-78" value="File not found. Starting a new game." style="shape=parallelogram;perimeter=parallelogramPerimeter;whiteSpace=wrap;html=1;fixedSize=1;rounded=1;" vertex="1" parent="1">
          <mxGeometry x="264.01" y="1090" width="220" height="60" as="geometry" />
        </mxCell>
        <mxCell id="E2Us5H4zCGEMR0FaRFGH-80" value="False" style="text;html=1;align=center;verticalAlign=middle;resizable=0;points=[];autosize=1;strokeColor=none;fillColor=none;" vertex="1" parent="1">
          <mxGeometry x="330" y="1038" width="50" height="30" as="geometry" />
        </mxCell>
        <mxCell id="E2Us5H4zCGEMR0FaRFGH-87" value="" style="edgeStyle=orthogonalEdgeStyle;rounded=0;orthogonalLoop=1;jettySize=auto;html=1;" edge="1" parent="1" source="E2Us5H4zCGEMR0FaRFGH-83" target="E2Us5H4zCGEMR0FaRFGH-86">
          <mxGeometry relative="1" as="geometry" />
        </mxCell>
        <mxCell id="E2Us5H4zCGEMR0FaRFGH-83" value="Read line from file&lt;div&gt;Display line&lt;/div&gt;" style="whiteSpace=wrap;html=1;rounded=1;" vertex="1" parent="1">
          <mxGeometry x="500.005" y="920" width="120" height="60" as="geometry" />
        </mxCell>
        <mxCell id="E2Us5H4zCGEMR0FaRFGH-85" value="True" style="text;html=1;align=center;verticalAlign=middle;resizable=0;points=[];autosize=1;strokeColor=none;fillColor=none;" vertex="1" parent="1">
          <mxGeometry x="405" y="948" width="50" height="30" as="geometry" />
        </mxCell>
        <mxCell id="E2Us5H4zCGEMR0FaRFGH-88" style="edgeStyle=orthogonalEdgeStyle;rounded=0;orthogonalLoop=1;jettySize=auto;html=1;exitX=1;exitY=0.5;exitDx=0;exitDy=0;entryX=0;entryY=0.5;entryDx=0;entryDy=0;" edge="1" parent="1" source="E2Us5H4zCGEMR0FaRFGH-86" target="E2Us5H4zCGEMR0FaRFGH-83">
          <mxGeometry relative="1" as="geometry">
            <Array as="points">
              <mxPoint x="760" y="950" />
              <mxPoint x="760" y="900" />
              <mxPoint x="470" y="900" />
              <mxPoint x="470" y="950" />
            </Array>
          </mxGeometry>
        </mxCell>
        <mxCell id="SSsTF5uQk71ekXXKJ_eu-1" style="edgeStyle=orthogonalEdgeStyle;rounded=0;orthogonalLoop=1;jettySize=auto;html=1;exitX=0.5;exitY=1;exitDx=0;exitDy=0;entryX=0.5;entryY=0;entryDx=0;entryDy=0;" edge="1" parent="1" source="E2Us5H4zCGEMR0FaRFGH-86" target="E2Us5H4zCGEMR0FaRFGH-94">
          <mxGeometry relative="1" as="geometry" />
        </mxCell>
        <mxCell id="E2Us5H4zCGEMR0FaRFGH-86" value="More lines" style="rhombus;whiteSpace=wrap;html=1;rounded=1;" vertex="1" parent="1">
          <mxGeometry x="660.005" y="910" width="80" height="80" as="geometry" />
        </mxCell>
        <mxCell id="E2Us5H4zCGEMR0FaRFGH-89" value="True" style="text;html=1;align=center;verticalAlign=middle;resizable=0;points=[];autosize=1;strokeColor=none;fillColor=none;" vertex="1" parent="1">
          <mxGeometry x="750.01" y="932.5" width="50" height="30" as="geometry" />
        </mxCell>
        <mxCell id="E2Us5H4zCGEMR0FaRFGH-99" value="" style="edgeStyle=orthogonalEdgeStyle;rounded=0;orthogonalLoop=1;jettySize=auto;html=1;" edge="1" parent="1" source="E2Us5H4zCGEMR0FaRFGH-90" target="E2Us5H4zCGEMR0FaRFGH-98">
          <mxGeometry relative="1" as="geometry" />
        </mxCell>
        <mxCell id="E2Us5H4zCGEMR0FaRFGH-90" value="Try to beat your previous score&lt;div&gt;Starting New Game!&lt;br&gt;&lt;/div&gt;" style="shape=parallelogram;perimeter=parallelogramPerimeter;whiteSpace=wrap;html=1;fixedSize=1;rounded=1;" vertex="1" parent="1">
          <mxGeometry x="600" y="1090" width="200" height="60" as="geometry" />
        </mxCell>
        <mxCell id="E2Us5H4zCGEMR0FaRFGH-92" value="False" style="text;html=1;align=center;verticalAlign=middle;resizable=0;points=[];autosize=1;strokeColor=none;fillColor=none;" vertex="1" parent="1">
          <mxGeometry x="730" y="982.5" width="50" height="30" as="geometry" />
        </mxCell>
        <mxCell id="SSsTF5uQk71ekXXKJ_eu-2" value="" style="edgeStyle=orthogonalEdgeStyle;rounded=0;orthogonalLoop=1;jettySize=auto;html=1;" edge="1" parent="1" source="E2Us5H4zCGEMR0FaRFGH-94" target="E2Us5H4zCGEMR0FaRFGH-90">
          <mxGeometry relative="1" as="geometry" />
        </mxCell>
        <mxCell id="E2Us5H4zCGEMR0FaRFGH-94" value="Close file" style="rounded=1;whiteSpace=wrap;html=1;" vertex="1" parent="1">
          <mxGeometry x="640.01" y="1012.5" width="120" height="40" as="geometry" />
        </mxCell>
        <mxCell id="E2Us5H4zCGEMR0FaRFGH-98" value="Page 2" style="ellipse;whiteSpace=wrap;html=1;aspect=fixed;" vertex="1" parent="1">
          <mxGeometry x="510" y="1090" width="60" height="60" as="geometry" />
        </mxCell>
      </root>
    </mxGraphModel>
  </diagram>
  <diagram id="X5kqxt0O3EUeIksNnFjf" name="Page-2">
    <mxGraphModel dx="1050" dy="541" grid="1" gridSize="10" guides="1" tooltips="1" connect="1" arrows="1" fold="1" page="1" pageScale="1" pageWidth="827" pageHeight="1169" math="0" shadow="0">
      <root>
        <mxCell id="0" />
        <mxCell id="1" parent="0" />
        <mxCell id="aH6O509aGqBFIq5ef6Lm-3" value="" style="edgeStyle=orthogonalEdgeStyle;rounded=0;orthogonalLoop=1;jettySize=auto;html=1;" edge="1" parent="1" source="aH6O509aGqBFIq5ef6Lm-1" target="aH6O509aGqBFIq5ef6Lm-2">
          <mxGeometry relative="1" as="geometry" />
        </mxCell>
        <mxCell id="aH6O509aGqBFIq5ef6Lm-1" value="Page 2" style="ellipse;whiteSpace=wrap;html=1;aspect=fixed;" vertex="1" parent="1">
          <mxGeometry x="124" y="10" width="80" height="80" as="geometry" />
        </mxCell>
        <mxCell id="aH6O509aGqBFIq5ef6Lm-5" value="" style="edgeStyle=orthogonalEdgeStyle;rounded=0;orthogonalLoop=1;jettySize=auto;html=1;" edge="1" parent="1" source="aH6O509aGqBFIq5ef6Lm-2" target="aH6O509aGqBFIq5ef6Lm-4">
          <mxGeometry relative="1" as="geometry" />
        </mxCell>
        <mxCell id="aH6O509aGqBFIq5ef6Lm-2" value="Do you want to use your username as part of the filename? (Y/N):&lt;div&gt;schce&lt;/div&gt;" style="shape=parallelogram;perimeter=parallelogramPerimeter;whiteSpace=wrap;html=1;fixedSize=1;" vertex="1" parent="1">
          <mxGeometry x="14" y="140" width="300" height="60" as="geometry" />
        </mxCell>
        <mxCell id="aH6O509aGqBFIq5ef6Lm-7" value="" style="edgeStyle=orthogonalEdgeStyle;rounded=0;orthogonalLoop=1;jettySize=auto;html=1;" edge="1" parent="1" source="aH6O509aGqBFIq5ef6Lm-4" target="aH6O509aGqBFIq5ef6Lm-6">
          <mxGeometry relative="1" as="geometry" />
        </mxCell>
        <mxCell id="aH6O509aGqBFIq5ef6Lm-11" value="" style="edgeStyle=orthogonalEdgeStyle;rounded=0;orthogonalLoop=1;jettySize=auto;html=1;" edge="1" parent="1" source="aH6O509aGqBFIq5ef6Lm-4" target="aH6O509aGqBFIq5ef6Lm-10">
          <mxGeometry relative="1" as="geometry" />
        </mxCell>
        <mxCell id="aH6O509aGqBFIq5ef6Lm-4" value="sChce != &#39;y&#39; &amp;&amp; sChce != &#39;n&#39;" style="rhombus;whiteSpace=wrap;html=1;" vertex="1" parent="1">
          <mxGeometry x="109" y="250" width="110" height="80" as="geometry" />
        </mxCell>
        <mxCell id="aH6O509aGqBFIq5ef6Lm-8" style="edgeStyle=orthogonalEdgeStyle;rounded=0;orthogonalLoop=1;jettySize=auto;html=1;exitX=1;exitY=0.5;exitDx=0;exitDy=0;entryX=0.5;entryY=0;entryDx=0;entryDy=0;" edge="1" parent="1" source="aH6O509aGqBFIq5ef6Lm-6" target="aH6O509aGqBFIq5ef6Lm-4">
          <mxGeometry relative="1" as="geometry">
            <Array as="points">
              <mxPoint x="504" y="290" />
              <mxPoint x="504" y="230" />
              <mxPoint x="164" y="230" />
            </Array>
          </mxGeometry>
        </mxCell>
        <mxCell id="aH6O509aGqBFIq5ef6Lm-6" value="Invalid Input. Input &#39;Y&#39; or &#39;N&#39;:&lt;div&gt;sChce&lt;br&gt;&lt;/div&gt;" style="shape=parallelogram;perimeter=parallelogramPerimeter;whiteSpace=wrap;html=1;fixedSize=1;" vertex="1" parent="1">
          <mxGeometry x="280" y="260" width="200" height="60" as="geometry" />
        </mxCell>
        <mxCell id="aH6O509aGqBFIq5ef6Lm-9" value="True" style="text;html=1;align=center;verticalAlign=middle;resizable=0;points=[];autosize=1;strokeColor=none;fillColor=none;" vertex="1" parent="1">
          <mxGeometry x="219" y="268" width="50" height="30" as="geometry" />
        </mxCell>
        <mxCell id="aH6O509aGqBFIq5ef6Lm-14" value="" style="edgeStyle=orthogonalEdgeStyle;rounded=0;orthogonalLoop=1;jettySize=auto;html=1;" edge="1" parent="1" source="aH6O509aGqBFIq5ef6Lm-10" target="aH6O509aGqBFIq5ef6Lm-13">
          <mxGeometry relative="1" as="geometry" />
        </mxCell>
        <mxCell id="aH6O509aGqBFIq5ef6Lm-17" value="" style="edgeStyle=orthogonalEdgeStyle;rounded=0;orthogonalLoop=1;jettySize=auto;html=1;" edge="1" parent="1" source="aH6O509aGqBFIq5ef6Lm-10" target="aH6O509aGqBFIq5ef6Lm-16">
          <mxGeometry relative="1" as="geometry" />
        </mxCell>
        <mxCell id="aH6O509aGqBFIq5ef6Lm-10" value="sChce == &#39;Y&#39;" style="rhombus;whiteSpace=wrap;html=1;" vertex="1" parent="1">
          <mxGeometry x="124" y="360" width="80" height="80" as="geometry" />
        </mxCell>
        <mxCell id="aH6O509aGqBFIq5ef6Lm-12" value="False" style="text;html=1;align=center;verticalAlign=middle;resizable=0;points=[];autosize=1;strokeColor=none;fillColor=none;" vertex="1" parent="1">
          <mxGeometry x="109" y="328" width="50" height="30" as="geometry" />
        </mxCell>
        <mxCell id="fiwcKc9CcjBB7KLN1js1-1" style="edgeStyle=orthogonalEdgeStyle;rounded=0;orthogonalLoop=1;jettySize=auto;html=1;exitX=0.5;exitY=1;exitDx=0;exitDy=0;entryX=0.5;entryY=0;entryDx=0;entryDy=0;" edge="1" parent="1" source="aH6O509aGqBFIq5ef6Lm-13" target="aH6O509aGqBFIq5ef6Lm-19">
          <mxGeometry relative="1" as="geometry">
            <Array as="points">
              <mxPoint x="374" y="530" />
              <mxPoint x="164" y="530" />
            </Array>
          </mxGeometry>
        </mxCell>
        <mxCell id="aH6O509aGqBFIq5ef6Lm-13" value="Enter the filename to save the game results:&lt;div&gt;fname&lt;/div&gt;" style="shape=parallelogram;perimeter=parallelogramPerimeter;whiteSpace=wrap;html=1;fixedSize=1;" vertex="1" parent="1">
          <mxGeometry x="244" y="375" width="260" height="50" as="geometry" />
        </mxCell>
        <mxCell id="aH6O509aGqBFIq5ef6Lm-15" value="False" style="text;html=1;align=center;verticalAlign=middle;resizable=0;points=[];autosize=1;strokeColor=none;fillColor=none;" vertex="1" parent="1">
          <mxGeometry x="194" y="378" width="50" height="30" as="geometry" />
        </mxCell>
        <mxCell id="fiwcKc9CcjBB7KLN1js1-2" style="edgeStyle=orthogonalEdgeStyle;rounded=0;orthogonalLoop=1;jettySize=auto;html=1;exitX=0.5;exitY=1;exitDx=0;exitDy=0;" edge="1" parent="1" source="aH6O509aGqBFIq5ef6Lm-16" target="aH6O509aGqBFIq5ef6Lm-19">
          <mxGeometry relative="1" as="geometry" />
        </mxCell>
        <mxCell id="aH6O509aGqBFIq5ef6Lm-16" value="personalized file name" style="shape=parallelogram;perimeter=parallelogramPerimeter;whiteSpace=wrap;html=1;fixedSize=1;" vertex="1" parent="1">
          <mxGeometry x="89" y="468" width="150" height="50" as="geometry" />
        </mxCell>
        <mxCell id="aH6O509aGqBFIq5ef6Lm-18" value="True" style="text;html=1;align=center;verticalAlign=middle;resizable=0;points=[];autosize=1;strokeColor=none;fillColor=none;" vertex="1" parent="1">
          <mxGeometry x="119" y="438" width="50" height="30" as="geometry" />
        </mxCell>
        <mxCell id="zueo9bGM49ngbUUIp1EX-2" value="" style="edgeStyle=orthogonalEdgeStyle;rounded=0;orthogonalLoop=1;jettySize=auto;html=1;" edge="1" parent="1" source="aH6O509aGqBFIq5ef6Lm-19" target="zueo9bGM49ngbUUIp1EX-1">
          <mxGeometry relative="1" as="geometry" />
        </mxCell>
        <mxCell id="fiwcKc9CcjBB7KLN1js1-5" style="edgeStyle=orthogonalEdgeStyle;rounded=0;orthogonalLoop=1;jettySize=auto;html=1;exitX=0.5;exitY=1;exitDx=0;exitDy=0;" edge="1" parent="1" source="aH6O509aGqBFIq5ef6Lm-19" target="fiwcKc9CcjBB7KLN1js1-3">
          <mxGeometry relative="1" as="geometry" />
        </mxCell>
        <mxCell id="aH6O509aGqBFIq5ef6Lm-19" value="is file open" style="rhombus;whiteSpace=wrap;html=1;" vertex="1" parent="1">
          <mxGeometry x="124" y="550" width="80" height="80" as="geometry" />
        </mxCell>
        <mxCell id="fiwcKc9CcjBB7KLN1js1-4" style="edgeStyle=orthogonalEdgeStyle;rounded=0;orthogonalLoop=1;jettySize=auto;html=1;exitX=0.5;exitY=1;exitDx=0;exitDy=0;entryX=1;entryY=0.5;entryDx=0;entryDy=0;" edge="1" parent="1" source="zueo9bGM49ngbUUIp1EX-1" target="fiwcKc9CcjBB7KLN1js1-3">
          <mxGeometry relative="1" as="geometry" />
        </mxCell>
        <mxCell id="zueo9bGM49ngbUUIp1EX-1" value="output to file&lt;div&gt;Welcome to Yahtzee!&lt;/div&gt;" style="whiteSpace=wrap;html=1;rounded=1;" vertex="1" parent="1">
          <mxGeometry x="269" y="562.5" width="120" height="55" as="geometry" />
        </mxCell>
        <mxCell id="zueo9bGM49ngbUUIp1EX-4" value="True" style="text;html=1;align=center;verticalAlign=middle;resizable=0;points=[];autosize=1;strokeColor=none;fillColor=none;" vertex="1" parent="1">
          <mxGeometry x="198" y="562.5" width="50" height="30" as="geometry" />
        </mxCell>
        <mxCell id="zueo9bGM49ngbUUIp1EX-11" value="" style="edgeStyle=orthogonalEdgeStyle;rounded=0;orthogonalLoop=1;jettySize=auto;html=1;" edge="1" parent="1" source="zueo9bGM49ngbUUIp1EX-6" target="zueo9bGM49ngbUUIp1EX-10">
          <mxGeometry relative="1" as="geometry" />
        </mxCell>
        <mxCell id="zueo9bGM49ngbUUIp1EX-6" value="Declare&lt;div&gt;int rnd = 1&lt;br&gt;&lt;/div&gt;" style="rounded=1;whiteSpace=wrap;html=1;" vertex="1" parent="1">
          <mxGeometry x="109" y="730" width="110" height="55" as="geometry" />
        </mxCell>
        <mxCell id="zueo9bGM49ngbUUIp1EX-13" value="" style="edgeStyle=orthogonalEdgeStyle;rounded=0;orthogonalLoop=1;jettySize=auto;html=1;" edge="1" parent="1" source="zueo9bGM49ngbUUIp1EX-10" target="zueo9bGM49ngbUUIp1EX-12">
          <mxGeometry relative="1" as="geometry" />
        </mxCell>
        <mxCell id="zueo9bGM49ngbUUIp1EX-20" value="" style="edgeStyle=orthogonalEdgeStyle;rounded=0;orthogonalLoop=1;jettySize=auto;html=1;" edge="1" parent="1" source="zueo9bGM49ngbUUIp1EX-10" target="zueo9bGM49ngbUUIp1EX-19">
          <mxGeometry relative="1" as="geometry" />
        </mxCell>
        <mxCell id="zueo9bGM49ngbUUIp1EX-10" value="rnd &lt;= 13" style="rhombus;whiteSpace=wrap;html=1;rounded=1;" vertex="1" parent="1">
          <mxGeometry x="124" y="842.5" width="80" height="80" as="geometry" />
        </mxCell>
        <mxCell id="zueo9bGM49ngbUUIp1EX-15" value="" style="edgeStyle=orthogonalEdgeStyle;rounded=0;orthogonalLoop=1;jettySize=auto;html=1;" edge="1" parent="1" source="zueo9bGM49ngbUUIp1EX-12" target="zueo9bGM49ngbUUIp1EX-14">
          <mxGeometry relative="1" as="geometry" />
        </mxCell>
        <mxCell id="zueo9bGM49ngbUUIp1EX-12" value="h1 = h2 = h3 = h4 = h5 = false&lt;div&gt;&amp;nbsp; rllsLft = 3;&lt;br&gt;&lt;/div&gt;" style="whiteSpace=wrap;html=1;rounded=1;" vertex="1" parent="1">
          <mxGeometry x="248" y="852.5" width="180" height="60" as="geometry" />
        </mxCell>
        <mxCell id="zueo9bGM49ngbUUIp1EX-17" value="" style="edgeStyle=orthogonalEdgeStyle;rounded=0;orthogonalLoop=1;jettySize=auto;html=1;" edge="1" parent="1" source="zueo9bGM49ngbUUIp1EX-14" target="zueo9bGM49ngbUUIp1EX-16">
          <mxGeometry relative="1" as="geometry" />
        </mxCell>
        <mxCell id="zueo9bGM49ngbUUIp1EX-14" value="Output&lt;div&gt;Round:&lt;br&gt;rnd&lt;/div&gt;" style="shape=parallelogram;perimeter=parallelogramPerimeter;whiteSpace=wrap;html=1;fixedSize=1;rounded=1;" vertex="1" parent="1">
          <mxGeometry x="454" y="852.5" width="120" height="60" as="geometry" />
        </mxCell>
        <mxCell id="vDpmkz_mHwux_T74L3Aw-12" value="" style="edgeStyle=orthogonalEdgeStyle;rounded=0;orthogonalLoop=1;jettySize=auto;html=1;" edge="1" parent="1" source="zueo9bGM49ngbUUIp1EX-16" target="vDpmkz_mHwux_T74L3Aw-11">
          <mxGeometry relative="1" as="geometry" />
        </mxCell>
        <mxCell id="zueo9bGM49ngbUUIp1EX-16" value="Output to file&lt;div&gt;Round&lt;br&gt;&lt;/div&gt;&lt;div&gt;rnd&lt;/div&gt;" style="whiteSpace=wrap;html=1;rounded=1;" vertex="1" parent="1">
          <mxGeometry x="604" y="852.5" width="120" height="60" as="geometry" />
        </mxCell>
        <mxCell id="zueo9bGM49ngbUUIp1EX-18" value="True" style="text;html=1;align=center;verticalAlign=middle;resizable=0;points=[];autosize=1;strokeColor=none;fillColor=none;" vertex="1" parent="1">
          <mxGeometry x="194" y="852.5" width="50" height="30" as="geometry" />
        </mxCell>
        <mxCell id="vDpmkz_mHwux_T74L3Aw-4" style="edgeStyle=orthogonalEdgeStyle;rounded=0;orthogonalLoop=1;jettySize=auto;html=1;exitX=0.5;exitY=1;exitDx=0;exitDy=0;entryX=0;entryY=0.5;entryDx=0;entryDy=0;" edge="1" parent="1" source="zueo9bGM49ngbUUIp1EX-19" target="vDpmkz_mHwux_T74L3Aw-1">
          <mxGeometry relative="1" as="geometry" />
        </mxCell>
        <mxCell id="zueo9bGM49ngbUUIp1EX-19" value="close file" style="rounded=1;whiteSpace=wrap;html=1;" vertex="1" parent="1">
          <mxGeometry x="104" y="1012.5" width="120" height="60" as="geometry" />
        </mxCell>
        <mxCell id="zueo9bGM49ngbUUIp1EX-21" value="False" style="text;html=1;align=center;verticalAlign=middle;resizable=0;points=[];autosize=1;strokeColor=none;fillColor=none;" vertex="1" parent="1">
          <mxGeometry x="109" y="950" width="50" height="30" as="geometry" />
        </mxCell>
        <mxCell id="vDpmkz_mHwux_T74L3Aw-1" value="Return 0&lt;div&gt;Exit&lt;/div&gt;" style="ellipse;whiteSpace=wrap;html=1;" vertex="1" parent="1">
          <mxGeometry x="278" y="1110" width="120" height="50" as="geometry" />
        </mxCell>
        <mxCell id="vDpmkz_mHwux_T74L3Aw-10" style="edgeStyle=orthogonalEdgeStyle;rounded=0;orthogonalLoop=1;jettySize=auto;html=1;exitX=0;exitY=0.5;exitDx=0;exitDy=0;" edge="1" parent="1" source="vDpmkz_mHwux_T74L3Aw-5" target="zueo9bGM49ngbUUIp1EX-10">
          <mxGeometry relative="1" as="geometry">
            <Array as="points">
              <mxPoint x="454" y="800" />
              <mxPoint x="164" y="800" />
            </Array>
          </mxGeometry>
        </mxCell>
        <mxCell id="vDpmkz_mHwux_T74L3Aw-5" value="rnd++" style="whiteSpace=wrap;html=1;rounded=1;" vertex="1" parent="1">
          <mxGeometry x="454" y="770" width="120" height="60" as="geometry" />
        </mxCell>
        <mxCell id="vDpmkz_mHwux_T74L3Aw-13" style="edgeStyle=orthogonalEdgeStyle;rounded=0;orthogonalLoop=1;jettySize=auto;html=1;exitX=0;exitY=0.5;exitDx=0;exitDy=0;entryX=1;entryY=0.5;entryDx=0;entryDy=0;" edge="1" parent="1" source="vDpmkz_mHwux_T74L3Aw-11" target="vDpmkz_mHwux_T74L3Aw-5">
          <mxGeometry relative="1" as="geometry">
            <Array as="points">
              <mxPoint x="734" y="800" />
              <mxPoint x="574" y="800" />
            </Array>
          </mxGeometry>
        </mxCell>
        <mxCell id="vDpmkz_mHwux_T74L3Aw-11" value="Page 3" style="ellipse;whiteSpace=wrap;html=1;rounded=1;" vertex="1" parent="1">
          <mxGeometry x="734" y="760" width="80" height="80" as="geometry" />
        </mxCell>
        <mxCell id="fiwcKc9CcjBB7KLN1js1-6" style="edgeStyle=orthogonalEdgeStyle;rounded=0;orthogonalLoop=1;jettySize=auto;html=1;exitX=0.5;exitY=1;exitDx=0;exitDy=0;entryX=0.5;entryY=0;entryDx=0;entryDy=0;" edge="1" parent="1" source="fiwcKc9CcjBB7KLN1js1-3" target="zueo9bGM49ngbUUIp1EX-6">
          <mxGeometry relative="1" as="geometry" />
        </mxCell>
        <mxCell id="fiwcKc9CcjBB7KLN1js1-3" value="page 2 a" style="ellipse;whiteSpace=wrap;html=1;aspect=fixed;" vertex="1" parent="1">
          <mxGeometry x="139.5" y="660" width="49" height="49" as="geometry" />
        </mxCell>
      </root>
    </mxGraphModel>
  </diagram>
  <diagram id="pJ5sokQoMFDhl69T4Ssq" name="Page-3">
    <mxGraphModel dx="1000" dy="515" grid="1" gridSize="10" guides="1" tooltips="1" connect="1" arrows="1" fold="1" page="1" pageScale="1" pageWidth="827" pageHeight="1169" math="0" shadow="0">
      <root>
        <mxCell id="0" />
        <mxCell id="1" parent="0" />
        <mxCell id="gwLz31zvav2jxQddU1U8-3" value="" style="edgeStyle=orthogonalEdgeStyle;rounded=0;orthogonalLoop=1;jettySize=auto;html=1;" edge="1" parent="1" source="gwLz31zvav2jxQddU1U8-1" target="gwLz31zvav2jxQddU1U8-2">
          <mxGeometry relative="1" as="geometry" />
        </mxCell>
        <mxCell id="gwLz31zvav2jxQddU1U8-1" value="Page 3" style="ellipse;whiteSpace=wrap;html=1;aspect=fixed;" vertex="1" parent="1">
          <mxGeometry x="100" y="30" width="80" height="80" as="geometry" />
        </mxCell>
        <mxCell id="gwLz31zvav2jxQddU1U8-5" value="" style="edgeStyle=orthogonalEdgeStyle;rounded=0;orthogonalLoop=1;jettySize=auto;html=1;" edge="1" parent="1" source="gwLz31zvav2jxQddU1U8-2" target="gwLz31zvav2jxQddU1U8-4">
          <mxGeometry relative="1" as="geometry" />
        </mxCell>
        <mxCell id="gwLz31zvav2jxQddU1U8-2" value="Do you want to (R)oll, (H)old, or (Q)uit?&lt;div&gt;GChce&lt;br&gt;&lt;/div&gt;" style="rounded=1;whiteSpace=wrap;html=1;" vertex="1" parent="1">
          <mxGeometry x="80" y="150" width="120" height="60" as="geometry" />
        </mxCell>
        <mxCell id="gwLz31zvav2jxQddU1U8-7" value="" style="edgeStyle=orthogonalEdgeStyle;rounded=0;orthogonalLoop=1;jettySize=auto;html=1;" edge="1" parent="1" source="gwLz31zvav2jxQddU1U8-4" target="gwLz31zvav2jxQddU1U8-6">
          <mxGeometry relative="1" as="geometry" />
        </mxCell>
        <mxCell id="gwLz31zvav2jxQddU1U8-19" value="" style="edgeStyle=orthogonalEdgeStyle;rounded=0;orthogonalLoop=1;jettySize=auto;html=1;" edge="1" parent="1" source="gwLz31zvav2jxQddU1U8-4" target="gwLz31zvav2jxQddU1U8-18">
          <mxGeometry relative="1" as="geometry" />
        </mxCell>
        <mxCell id="gwLz31zvav2jxQddU1U8-4" value="GChce = R" style="rhombus;whiteSpace=wrap;html=1;rounded=1;" vertex="1" parent="1">
          <mxGeometry x="100" y="250" width="80" height="80" as="geometry" />
        </mxCell>
        <mxCell id="gwLz31zvav2jxQddU1U8-9" value="" style="edgeStyle=orthogonalEdgeStyle;rounded=0;orthogonalLoop=1;jettySize=auto;html=1;" edge="1" parent="1" source="gwLz31zvav2jxQddU1U8-6" target="gwLz31zvav2jxQddU1U8-8">
          <mxGeometry relative="1" as="geometry" />
        </mxCell>
        <mxCell id="gwLz31zvav2jxQddU1U8-21" value="" style="edgeStyle=orthogonalEdgeStyle;rounded=0;orthogonalLoop=1;jettySize=auto;html=1;" edge="1" parent="1" source="gwLz31zvav2jxQddU1U8-6" target="gwLz31zvav2jxQddU1U8-20">
          <mxGeometry relative="1" as="geometry" />
        </mxCell>
        <mxCell id="gwLz31zvav2jxQddU1U8-6" value="GChce =H" style="rhombus;whiteSpace=wrap;html=1;rounded=1;" vertex="1" parent="1">
          <mxGeometry x="100" y="370" width="80" height="80" as="geometry" />
        </mxCell>
        <mxCell id="gwLz31zvav2jxQddU1U8-13" value="" style="edgeStyle=orthogonalEdgeStyle;rounded=0;orthogonalLoop=1;jettySize=auto;html=1;" edge="1" parent="1" source="gwLz31zvav2jxQddU1U8-8" target="gwLz31zvav2jxQddU1U8-12">
          <mxGeometry relative="1" as="geometry" />
        </mxCell>
        <mxCell id="gwLz31zvav2jxQddU1U8-15" value="" style="edgeStyle=orthogonalEdgeStyle;rounded=0;orthogonalLoop=1;jettySize=auto;html=1;" edge="1" parent="1" source="gwLz31zvav2jxQddU1U8-8" target="gwLz31zvav2jxQddU1U8-14">
          <mxGeometry relative="1" as="geometry" />
        </mxCell>
        <mxCell id="gwLz31zvav2jxQddU1U8-8" value="GChce = Q" style="rhombus;whiteSpace=wrap;html=1;rounded=1;" vertex="1" parent="1">
          <mxGeometry x="100" y="490" width="80" height="80" as="geometry" />
        </mxCell>
        <mxCell id="aBdNVPRg0H4Cuy1YTmT--2" style="edgeStyle=orthogonalEdgeStyle;rounded=0;orthogonalLoop=1;jettySize=auto;html=1;exitX=1;exitY=0.5;exitDx=0;exitDy=0;entryX=0;entryY=0.5;entryDx=0;entryDy=0;" edge="1" parent="1" source="gwLz31zvav2jxQddU1U8-12" target="aBdNVPRg0H4Cuy1YTmT--1">
          <mxGeometry relative="1" as="geometry" />
        </mxCell>
        <mxCell id="gwLz31zvav2jxQddU1U8-12" value="Invalid Choice!" style="shape=parallelogram;perimeter=parallelogramPerimeter;whiteSpace=wrap;html=1;fixedSize=1;rounded=1;" vertex="1" parent="1">
          <mxGeometry x="80" y="620" width="120" height="60" as="geometry" />
        </mxCell>
        <mxCell id="gwLz31zvav2jxQddU1U8-17" value="" style="edgeStyle=orthogonalEdgeStyle;rounded=0;orthogonalLoop=1;jettySize=auto;html=1;" edge="1" parent="1" source="gwLz31zvav2jxQddU1U8-14" target="gwLz31zvav2jxQddU1U8-16">
          <mxGeometry relative="1" as="geometry" />
        </mxCell>
        <mxCell id="gwLz31zvav2jxQddU1U8-14" value="rnd = 13" style="whiteSpace=wrap;html=1;rounded=1;" vertex="1" parent="1">
          <mxGeometry x="240" y="500" width="120" height="60" as="geometry" />
        </mxCell>
        <mxCell id="aBdNVPRg0H4Cuy1YTmT--3" style="edgeStyle=orthogonalEdgeStyle;rounded=0;orthogonalLoop=1;jettySize=auto;html=1;exitX=0.5;exitY=1;exitDx=0;exitDy=0;entryX=1;entryY=0.5;entryDx=0;entryDy=0;" edge="1" parent="1" source="gwLz31zvav2jxQddU1U8-16" target="aBdNVPRg0H4Cuy1YTmT--1">
          <mxGeometry relative="1" as="geometry" />
        </mxCell>
        <mxCell id="gwLz31zvav2jxQddU1U8-16" value="you quit" style="shape=parallelogram;perimeter=parallelogramPerimeter;whiteSpace=wrap;html=1;fixedSize=1;rounded=1;" vertex="1" parent="1">
          <mxGeometry x="400" y="500" width="120" height="60" as="geometry" />
        </mxCell>
        <mxCell id="aBdNVPRg0H4Cuy1YTmT--5" style="edgeStyle=orthogonalEdgeStyle;rounded=0;orthogonalLoop=1;jettySize=auto;html=1;exitX=1;exitY=0.5;exitDx=0;exitDy=0;entryX=1;entryY=0.5;entryDx=0;entryDy=0;" edge="1" parent="1" source="gwLz31zvav2jxQddU1U8-18" target="aBdNVPRg0H4Cuy1YTmT--1">
          <mxGeometry relative="1" as="geometry">
            <Array as="points">
              <mxPoint x="560" y="290" />
              <mxPoint x="560" y="650" />
            </Array>
          </mxGeometry>
        </mxCell>
        <mxCell id="gwLz31zvav2jxQddU1U8-18" value="Page 4" style="ellipse;whiteSpace=wrap;html=1;rounded=1;" vertex="1" parent="1">
          <mxGeometry x="260" y="250" width="80" height="80" as="geometry" />
        </mxCell>
        <mxCell id="aBdNVPRg0H4Cuy1YTmT--4" style="edgeStyle=orthogonalEdgeStyle;rounded=0;orthogonalLoop=1;jettySize=auto;html=1;exitX=1;exitY=0.5;exitDx=0;exitDy=0;" edge="1" parent="1" source="gwLz31zvav2jxQddU1U8-20">
          <mxGeometry relative="1" as="geometry">
            <mxPoint x="400" y="650" as="targetPoint" />
            <Array as="points">
              <mxPoint x="560" y="410" />
              <mxPoint x="560" y="650" />
            </Array>
          </mxGeometry>
        </mxCell>
        <mxCell id="gwLz31zvav2jxQddU1U8-20" value="Page 5" style="ellipse;whiteSpace=wrap;html=1;rounded=1;" vertex="1" parent="1">
          <mxGeometry x="260" y="370" width="80" height="80" as="geometry" />
        </mxCell>
        <mxCell id="pGSYFhSKoY3wvdiXdbzs-15" value="" style="edgeStyle=orthogonalEdgeStyle;rounded=0;orthogonalLoop=1;jettySize=auto;html=1;" edge="1" parent="1" source="pGSYFhSKoY3wvdiXdbzs-1" target="pGSYFhSKoY3wvdiXdbzs-14">
          <mxGeometry relative="1" as="geometry" />
        </mxCell>
        <mxCell id="pGSYFhSKoY3wvdiXdbzs-1" value="rllsLft &amp;gt; 0 &amp;amp;&amp;amp; GChce != &#39;Q&#39;" style="rhombus;whiteSpace=wrap;html=1;rounded=1;" vertex="1" parent="1">
          <mxGeometry x="280" y="730" width="166" height="70" as="geometry" />
        </mxCell>
        <mxCell id="pGSYFhSKoY3wvdiXdbzs-10" value="True" style="text;html=1;align=center;verticalAlign=middle;resizable=0;points=[];autosize=1;strokeColor=none;fillColor=none;" vertex="1" parent="1">
          <mxGeometry x="175" y="508" width="50" height="30" as="geometry" />
        </mxCell>
        <mxCell id="pGSYFhSKoY3wvdiXdbzs-11" value="True" style="text;html=1;align=center;verticalAlign=middle;resizable=0;points=[];autosize=1;strokeColor=none;fillColor=none;" vertex="1" parent="1">
          <mxGeometry x="175" y="378" width="50" height="30" as="geometry" />
        </mxCell>
        <mxCell id="pGSYFhSKoY3wvdiXdbzs-12" value="True" style="text;html=1;align=center;verticalAlign=middle;resizable=0;points=[];autosize=1;strokeColor=none;fillColor=none;" vertex="1" parent="1">
          <mxGeometry x="185" y="258" width="50" height="30" as="geometry" />
        </mxCell>
        <mxCell id="pGSYFhSKoY3wvdiXdbzs-13" value="False" style="text;html=1;align=center;verticalAlign=middle;resizable=0;points=[];autosize=1;strokeColor=none;fillColor=none;" vertex="1" parent="1">
          <mxGeometry x="100" y="570" width="50" height="30" as="geometry" />
        </mxCell>
        <mxCell id="pGSYFhSKoY3wvdiXdbzs-17" value="" style="edgeStyle=orthogonalEdgeStyle;rounded=0;orthogonalLoop=1;jettySize=auto;html=1;" edge="1" parent="1" source="pGSYFhSKoY3wvdiXdbzs-14" target="pGSYFhSKoY3wvdiXdbzs-16">
          <mxGeometry relative="1" as="geometry" />
        </mxCell>
        <mxCell id="pGSYFhSKoY3wvdiXdbzs-14" value="display amount of rolls left" style="shape=parallelogram;perimeter=parallelogramPerimeter;whiteSpace=wrap;html=1;fixedSize=1;rounded=1;" vertex="1" parent="1">
          <mxGeometry x="279" y="840" width="167" height="65" as="geometry" />
        </mxCell>
        <mxCell id="pGSYFhSKoY3wvdiXdbzs-18" style="edgeStyle=orthogonalEdgeStyle;rounded=0;orthogonalLoop=1;jettySize=auto;html=1;exitX=1;exitY=0.5;exitDx=0;exitDy=0;entryX=0.5;entryY=0;entryDx=0;entryDy=0;" edge="1" parent="1" source="pGSYFhSKoY3wvdiXdbzs-16" target="gwLz31zvav2jxQddU1U8-2">
          <mxGeometry relative="1" as="geometry">
            <Array as="points">
              <mxPoint x="640" y="1006" />
              <mxPoint x="640" y="130" />
              <mxPoint x="140" y="130" />
            </Array>
          </mxGeometry>
        </mxCell>
        <mxCell id="pGSYFhSKoY3wvdiXdbzs-21" value="" style="edgeStyle=orthogonalEdgeStyle;rounded=0;orthogonalLoop=1;jettySize=auto;html=1;" edge="1" parent="1" source="pGSYFhSKoY3wvdiXdbzs-16" target="pGSYFhSKoY3wvdiXdbzs-20">
          <mxGeometry relative="1" as="geometry" />
        </mxCell>
        <mxCell id="pGSYFhSKoY3wvdiXdbzs-16" value="rllsLft &amp;gt; 0 &amp;amp;&amp;amp; GChce != &#39;Q&#39;&amp;nbsp;" style="rhombus;whiteSpace=wrap;html=1;rounded=1;" vertex="1" parent="1">
          <mxGeometry x="309.25" y="970" width="107.5" height="72.5" as="geometry" />
        </mxCell>
        <mxCell id="pGSYFhSKoY3wvdiXdbzs-19" value="True" style="text;html=1;align=center;verticalAlign=middle;resizable=0;points=[];autosize=1;strokeColor=none;fillColor=none;" vertex="1" parent="1">
          <mxGeometry x="425" y="978" width="50" height="30" as="geometry" />
        </mxCell>
        <mxCell id="pGSYFhSKoY3wvdiXdbzs-24" value="" style="edgeStyle=orthogonalEdgeStyle;rounded=0;orthogonalLoop=1;jettySize=auto;html=1;" edge="1" parent="1" source="pGSYFhSKoY3wvdiXdbzs-20" target="pGSYFhSKoY3wvdiXdbzs-23">
          <mxGeometry relative="1" as="geometry" />
        </mxCell>
        <mxCell id="pGSYFhSKoY3wvdiXdbzs-20" value="int rndScre = d1 + d2 + d3 + d4 + d5" style="whiteSpace=wrap;html=1;rounded=1;" vertex="1" parent="1">
          <mxGeometry x="249" y="1090" width="227" height="51.25" as="geometry" />
        </mxCell>
        <mxCell id="pGSYFhSKoY3wvdiXdbzs-22" value="False" style="text;html=1;align=center;verticalAlign=middle;resizable=0;points=[];autosize=1;strokeColor=none;fillColor=none;" vertex="1" parent="1">
          <mxGeometry x="310" y="1042.5" width="50" height="30" as="geometry" />
        </mxCell>
        <mxCell id="pGSYFhSKoY3wvdiXdbzs-26" value="" style="edgeStyle=orthogonalEdgeStyle;rounded=0;orthogonalLoop=1;jettySize=auto;html=1;" edge="1" parent="1" source="pGSYFhSKoY3wvdiXdbzs-23" target="pGSYFhSKoY3wvdiXdbzs-25">
          <mxGeometry relative="1" as="geometry" />
        </mxCell>
        <mxCell id="pGSYFhSKoY3wvdiXdbzs-23" value="ttlScre += rndScre" style="whiteSpace=wrap;html=1;rounded=1;" vertex="1" parent="1">
          <mxGeometry x="510" y="1087.81" width="100" height="55.63" as="geometry" />
        </mxCell>
        <mxCell id="pGSYFhSKoY3wvdiXdbzs-25" value="page 6" style="ellipse;whiteSpace=wrap;html=1;rounded=1;" vertex="1" parent="1">
          <mxGeometry x="700" y="1075.625" width="80" height="80" as="geometry" />
        </mxCell>
        <mxCell id="aBdNVPRg0H4Cuy1YTmT--6" style="edgeStyle=orthogonalEdgeStyle;rounded=0;orthogonalLoop=1;jettySize=auto;html=1;exitX=0.5;exitY=1;exitDx=0;exitDy=0;entryX=0.5;entryY=0;entryDx=0;entryDy=0;" edge="1" parent="1" source="aBdNVPRg0H4Cuy1YTmT--1" target="pGSYFhSKoY3wvdiXdbzs-1">
          <mxGeometry relative="1" as="geometry" />
        </mxCell>
        <mxCell id="aBdNVPRg0H4Cuy1YTmT--1" value="page 3 a" style="ellipse;whiteSpace=wrap;html=1;aspect=fixed;" vertex="1" parent="1">
          <mxGeometry x="327.5" y="615" width="70" height="70" as="geometry" />
        </mxCell>
      </root>
    </mxGraphModel>
  </diagram>
  <diagram id="uKoO29fBQVlV6-niD5Bp" name="Page-4">
    <mxGraphModel dx="1050" dy="541" grid="1" gridSize="10" guides="1" tooltips="1" connect="1" arrows="1" fold="1" page="1" pageScale="1" pageWidth="827" pageHeight="1169" math="0" shadow="0">
      <root>
        <mxCell id="0" />
        <mxCell id="1" parent="0" />
        <mxCell id="ILRgqHF_yuSfpRP-waWx-3" value="" style="edgeStyle=orthogonalEdgeStyle;rounded=0;orthogonalLoop=1;jettySize=auto;html=1;" edge="1" parent="1" source="ILRgqHF_yuSfpRP-waWx-1" target="ILRgqHF_yuSfpRP-waWx-2">
          <mxGeometry relative="1" as="geometry" />
        </mxCell>
        <mxCell id="ILRgqHF_yuSfpRP-waWx-1" value="Page 4" style="ellipse;whiteSpace=wrap;html=1;" vertex="1" parent="1">
          <mxGeometry x="347.5" width="50" height="50" as="geometry" />
        </mxCell>
        <mxCell id="ILRgqHF_yuSfpRP-waWx-5" value="" style="edgeStyle=orthogonalEdgeStyle;rounded=0;orthogonalLoop=1;jettySize=auto;html=1;" edge="1" parent="1" source="ILRgqHF_yuSfpRP-waWx-2" target="ILRgqHF_yuSfpRP-waWx-4">
          <mxGeometry relative="1" as="geometry" />
        </mxCell>
        <mxCell id="ILRgqHF_yuSfpRP-waWx-8" value="" style="edgeStyle=orthogonalEdgeStyle;rounded=0;orthogonalLoop=1;jettySize=auto;html=1;" edge="1" parent="1" source="ILRgqHF_yuSfpRP-waWx-2" target="ILRgqHF_yuSfpRP-waWx-7">
          <mxGeometry relative="1" as="geometry" />
        </mxCell>
        <mxCell id="ILRgqHF_yuSfpRP-waWx-2" value="!h1" style="rhombus;whiteSpace=wrap;html=1;" vertex="1" parent="1">
          <mxGeometry x="345" y="100" width="55" height="45" as="geometry" />
        </mxCell>
        <mxCell id="ILRgqHF_yuSfpRP-waWx-14" style="edgeStyle=orthogonalEdgeStyle;rounded=0;orthogonalLoop=1;jettySize=auto;html=1;entryX=0.5;entryY=0;entryDx=0;entryDy=0;" edge="1" parent="1" source="ILRgqHF_yuSfpRP-waWx-4" target="ILRgqHF_yuSfpRP-waWx-7">
          <mxGeometry relative="1" as="geometry">
            <Array as="points">
              <mxPoint x="507.5" y="170" />
              <mxPoint x="372.5" y="170" />
            </Array>
          </mxGeometry>
        </mxCell>
        <mxCell id="ILRgqHF_yuSfpRP-waWx-4" value="d1 =&amp;nbsp; random number between 1 and 6" style="rounded=1;whiteSpace=wrap;html=1;" vertex="1" parent="1">
          <mxGeometry x="447.5" y="92.5" width="120" height="60" as="geometry" />
        </mxCell>
        <mxCell id="ILRgqHF_yuSfpRP-waWx-6" value="True" style="text;html=1;align=center;verticalAlign=middle;resizable=0;points=[];autosize=1;strokeColor=none;fillColor=none;" vertex="1" parent="1">
          <mxGeometry x="382.5" y="98" width="50" height="30" as="geometry" />
        </mxCell>
        <mxCell id="ILRgqHF_yuSfpRP-waWx-13" value="" style="edgeStyle=orthogonalEdgeStyle;rounded=0;orthogonalLoop=1;jettySize=auto;html=1;" edge="1" parent="1" source="ILRgqHF_yuSfpRP-waWx-7" target="ILRgqHF_yuSfpRP-waWx-12">
          <mxGeometry relative="1" as="geometry" />
        </mxCell>
        <mxCell id="ILRgqHF_yuSfpRP-waWx-16" value="" style="edgeStyle=orthogonalEdgeStyle;rounded=0;orthogonalLoop=1;jettySize=auto;html=1;" edge="1" parent="1" source="ILRgqHF_yuSfpRP-waWx-7" target="ILRgqHF_yuSfpRP-waWx-15">
          <mxGeometry relative="1" as="geometry" />
        </mxCell>
        <mxCell id="ILRgqHF_yuSfpRP-waWx-7" value="!h2" style="rhombus;whiteSpace=wrap;html=1;" vertex="1" parent="1">
          <mxGeometry x="345" y="200" width="55" height="45" as="geometry" />
        </mxCell>
        <mxCell id="ILRgqHF_yuSfpRP-waWx-9" value="False" style="text;html=1;align=center;verticalAlign=middle;resizable=0;points=[];autosize=1;strokeColor=none;fillColor=none;" vertex="1" parent="1">
          <mxGeometry x="332.5" y="148" width="50" height="30" as="geometry" />
        </mxCell>
        <mxCell id="ILRgqHF_yuSfpRP-waWx-24" style="edgeStyle=orthogonalEdgeStyle;rounded=0;orthogonalLoop=1;jettySize=auto;html=1;exitX=0.5;exitY=1;exitDx=0;exitDy=0;entryX=0.5;entryY=0;entryDx=0;entryDy=0;" edge="1" parent="1" source="ILRgqHF_yuSfpRP-waWx-12" target="ILRgqHF_yuSfpRP-waWx-15">
          <mxGeometry relative="1" as="geometry" />
        </mxCell>
        <mxCell id="ILRgqHF_yuSfpRP-waWx-12" value="&lt;br&gt;d2 = random number between 1 and 6" style="rounded=1;whiteSpace=wrap;html=1;" vertex="1" parent="1">
          <mxGeometry x="447.5" y="193.75" width="120" height="57.5" as="geometry" />
        </mxCell>
        <mxCell id="ILRgqHF_yuSfpRP-waWx-22" value="" style="edgeStyle=orthogonalEdgeStyle;rounded=0;orthogonalLoop=1;jettySize=auto;html=1;" edge="1" parent="1" source="ILRgqHF_yuSfpRP-waWx-15" target="ILRgqHF_yuSfpRP-waWx-21">
          <mxGeometry relative="1" as="geometry" />
        </mxCell>
        <mxCell id="ILRgqHF_yuSfpRP-waWx-26" value="" style="edgeStyle=orthogonalEdgeStyle;rounded=0;orthogonalLoop=1;jettySize=auto;html=1;" edge="1" parent="1" source="ILRgqHF_yuSfpRP-waWx-15" target="ILRgqHF_yuSfpRP-waWx-25">
          <mxGeometry relative="1" as="geometry" />
        </mxCell>
        <mxCell id="ILRgqHF_yuSfpRP-waWx-15" value="!h3" style="rhombus;whiteSpace=wrap;html=1;" vertex="1" parent="1">
          <mxGeometry x="345" y="300" width="55" height="45" as="geometry" />
        </mxCell>
        <mxCell id="ILRgqHF_yuSfpRP-waWx-17" value="True" style="text;html=1;align=center;verticalAlign=middle;resizable=0;points=[];autosize=1;strokeColor=none;fillColor=none;" vertex="1" parent="1">
          <mxGeometry x="392.5" y="198" width="50" height="30" as="geometry" />
        </mxCell>
        <mxCell id="ILRgqHF_yuSfpRP-waWx-18" value="False" style="text;html=1;align=center;verticalAlign=middle;resizable=0;points=[];autosize=1;strokeColor=none;fillColor=none;" vertex="1" parent="1">
          <mxGeometry x="327.5" y="251.25" width="50" height="30" as="geometry" />
        </mxCell>
        <mxCell id="ILRgqHF_yuSfpRP-waWx-31" style="edgeStyle=orthogonalEdgeStyle;rounded=0;orthogonalLoop=1;jettySize=auto;html=1;exitX=0.5;exitY=1;exitDx=0;exitDy=0;entryX=0.5;entryY=0;entryDx=0;entryDy=0;" edge="1" parent="1" source="ILRgqHF_yuSfpRP-waWx-21" target="ILRgqHF_yuSfpRP-waWx-25">
          <mxGeometry relative="1" as="geometry">
            <Array as="points">
              <mxPoint x="507.5" y="370" />
              <mxPoint x="372.5" y="370" />
            </Array>
          </mxGeometry>
        </mxCell>
        <mxCell id="ILRgqHF_yuSfpRP-waWx-21" value="d3 =&amp;nbsp; random number between 1 and 6" style="rounded=1;whiteSpace=wrap;html=1;" vertex="1" parent="1">
          <mxGeometry x="447.5" y="292.5" width="120" height="60" as="geometry" />
        </mxCell>
        <mxCell id="ILRgqHF_yuSfpRP-waWx-23" value="True" style="text;html=1;align=center;verticalAlign=middle;resizable=0;points=[];autosize=1;strokeColor=none;fillColor=none;" vertex="1" parent="1">
          <mxGeometry x="392.5" y="292.5" width="50" height="30" as="geometry" />
        </mxCell>
        <mxCell id="ILRgqHF_yuSfpRP-waWx-29" value="" style="edgeStyle=orthogonalEdgeStyle;rounded=0;orthogonalLoop=1;jettySize=auto;html=1;" edge="1" parent="1" source="ILRgqHF_yuSfpRP-waWx-25" target="ILRgqHF_yuSfpRP-waWx-28">
          <mxGeometry relative="1" as="geometry" />
        </mxCell>
        <mxCell id="ILRgqHF_yuSfpRP-waWx-33" value="" style="edgeStyle=orthogonalEdgeStyle;rounded=0;orthogonalLoop=1;jettySize=auto;html=1;" edge="1" parent="1" source="ILRgqHF_yuSfpRP-waWx-25" target="ILRgqHF_yuSfpRP-waWx-32">
          <mxGeometry relative="1" as="geometry" />
        </mxCell>
        <mxCell id="ILRgqHF_yuSfpRP-waWx-25" value="!h4" style="rhombus;whiteSpace=wrap;html=1;" vertex="1" parent="1">
          <mxGeometry x="345" y="390" width="55" height="45" as="geometry" />
        </mxCell>
        <mxCell id="ILRgqHF_yuSfpRP-waWx-27" value="False" style="text;html=1;align=center;verticalAlign=middle;resizable=0;points=[];autosize=1;strokeColor=none;fillColor=none;" vertex="1" parent="1">
          <mxGeometry x="332.5" y="348" width="50" height="30" as="geometry" />
        </mxCell>
        <mxCell id="ILRgqHF_yuSfpRP-waWx-37" style="edgeStyle=orthogonalEdgeStyle;rounded=0;orthogonalLoop=1;jettySize=auto;html=1;entryX=0.5;entryY=0;entryDx=0;entryDy=0;" edge="1" parent="1" source="ILRgqHF_yuSfpRP-waWx-28" target="ILRgqHF_yuSfpRP-waWx-32">
          <mxGeometry relative="1" as="geometry">
            <Array as="points">
              <mxPoint x="507.5" y="460" />
              <mxPoint x="372.5" y="460" />
            </Array>
          </mxGeometry>
        </mxCell>
        <mxCell id="ILRgqHF_yuSfpRP-waWx-28" value="d4 = random number between 1 and 6" style="rounded=1;whiteSpace=wrap;html=1;" vertex="1" parent="1">
          <mxGeometry x="447.5" y="382.5" width="120" height="60" as="geometry" />
        </mxCell>
        <mxCell id="ILRgqHF_yuSfpRP-waWx-30" value="True" style="text;html=1;align=center;verticalAlign=middle;resizable=0;points=[];autosize=1;strokeColor=none;fillColor=none;" vertex="1" parent="1">
          <mxGeometry x="392.5" y="390" width="50" height="30" as="geometry" />
        </mxCell>
        <mxCell id="ILRgqHF_yuSfpRP-waWx-36" value="" style="edgeStyle=orthogonalEdgeStyle;rounded=0;orthogonalLoop=1;jettySize=auto;html=1;" edge="1" parent="1" source="ILRgqHF_yuSfpRP-waWx-32" target="ILRgqHF_yuSfpRP-waWx-35">
          <mxGeometry relative="1" as="geometry" />
        </mxCell>
        <mxCell id="ILRgqHF_yuSfpRP-waWx-40" value="" style="edgeStyle=orthogonalEdgeStyle;rounded=0;orthogonalLoop=1;jettySize=auto;html=1;" edge="1" parent="1" source="ILRgqHF_yuSfpRP-waWx-32" target="ILRgqHF_yuSfpRP-waWx-39">
          <mxGeometry relative="1" as="geometry" />
        </mxCell>
        <mxCell id="ILRgqHF_yuSfpRP-waWx-32" value="!h5" style="rhombus;whiteSpace=wrap;html=1;" vertex="1" parent="1">
          <mxGeometry x="345" y="480" width="55" height="45" as="geometry" />
        </mxCell>
        <mxCell id="ILRgqHF_yuSfpRP-waWx-34" value="False" style="text;html=1;align=center;verticalAlign=middle;resizable=0;points=[];autosize=1;strokeColor=none;fillColor=none;" vertex="1" parent="1">
          <mxGeometry x="332.5" y="438" width="50" height="30" as="geometry" />
        </mxCell>
        <mxCell id="ILRgqHF_yuSfpRP-waWx-41" style="edgeStyle=orthogonalEdgeStyle;rounded=0;orthogonalLoop=1;jettySize=auto;html=1;entryX=0.5;entryY=0;entryDx=0;entryDy=0;" edge="1" parent="1" source="ILRgqHF_yuSfpRP-waWx-35" target="ILRgqHF_yuSfpRP-waWx-39">
          <mxGeometry relative="1" as="geometry">
            <Array as="points">
              <mxPoint x="507.5" y="550" />
              <mxPoint x="372.5" y="550" />
            </Array>
          </mxGeometry>
        </mxCell>
        <mxCell id="ILRgqHF_yuSfpRP-waWx-35" value="d5 = random number between 1 and 6" style="rounded=1;whiteSpace=wrap;html=1;" vertex="1" parent="1">
          <mxGeometry x="447.5" y="472.5" width="120" height="60" as="geometry" />
        </mxCell>
        <mxCell id="ILRgqHF_yuSfpRP-waWx-38" value="True" style="text;html=1;align=center;verticalAlign=middle;resizable=0;points=[];autosize=1;strokeColor=none;fillColor=none;" vertex="1" parent="1">
          <mxGeometry x="392.5" y="480" width="50" height="30" as="geometry" />
        </mxCell>
        <mxCell id="ILRgqHF_yuSfpRP-waWx-45" value="" style="edgeStyle=orthogonalEdgeStyle;rounded=0;orthogonalLoop=1;jettySize=auto;html=1;" edge="1" parent="1" source="ILRgqHF_yuSfpRP-waWx-39" target="ILRgqHF_yuSfpRP-waWx-44">
          <mxGeometry relative="1" as="geometry" />
        </mxCell>
        <mxCell id="ILRgqHF_yuSfpRP-waWx-39" value="Display rolled dice" style="shape=parallelogram;perimeter=parallelogramPerimeter;whiteSpace=wrap;html=1;fixedSize=1;" vertex="1" parent="1">
          <mxGeometry x="300" y="580" width="145" height="60" as="geometry" />
        </mxCell>
        <mxCell id="ILRgqHF_yuSfpRP-waWx-47" value="" style="edgeStyle=orthogonalEdgeStyle;rounded=0;orthogonalLoop=1;jettySize=auto;html=1;" edge="1" parent="1" source="ILRgqHF_yuSfpRP-waWx-44" target="ILRgqHF_yuSfpRP-waWx-46">
          <mxGeometry relative="1" as="geometry" />
        </mxCell>
        <mxCell id="ILRgqHF_yuSfpRP-waWx-44" value="Display rolled dice in file" style="rounded=1;whiteSpace=wrap;html=1;" vertex="1" parent="1">
          <mxGeometry x="312.5" y="670" width="120" height="60" as="geometry" />
        </mxCell>
        <mxCell id="ILRgqHF_yuSfpRP-waWx-49" value="" style="edgeStyle=orthogonalEdgeStyle;rounded=0;orthogonalLoop=1;jettySize=auto;html=1;" edge="1" parent="1" source="ILRgqHF_yuSfpRP-waWx-46" target="ILRgqHF_yuSfpRP-waWx-48">
          <mxGeometry relative="1" as="geometry" />
        </mxCell>
        <mxCell id="FCnmbDO2Q9FQIWUgZBEj-4" value="" style="edgeStyle=orthogonalEdgeStyle;rounded=0;orthogonalLoop=1;jettySize=auto;html=1;" edge="1" parent="1" source="ILRgqHF_yuSfpRP-waWx-46" target="FCnmbDO2Q9FQIWUgZBEj-3">
          <mxGeometry relative="1" as="geometry" />
        </mxCell>
        <mxCell id="ILRgqHF_yuSfpRP-waWx-46" value="d1 == d2 &amp;amp;&amp;amp; d2 == d3 &amp;amp;&amp;amp; d3 == d4 &amp;amp;&amp;amp; d4 == d5" style="rhombus;whiteSpace=wrap;html=1;rounded=1;" vertex="1" parent="1">
          <mxGeometry x="65" y="775" width="330" height="50" as="geometry" />
        </mxCell>
        <mxCell id="ILRgqHF_yuSfpRP-waWx-51" value="" style="edgeStyle=orthogonalEdgeStyle;rounded=0;orthogonalLoop=1;jettySize=auto;html=1;" edge="1" parent="1" source="ILRgqHF_yuSfpRP-waWx-48" target="ILRgqHF_yuSfpRP-waWx-50">
          <mxGeometry relative="1" as="geometry">
            <Array as="points">
              <mxPoint x="230" y="1120" />
            </Array>
          </mxGeometry>
        </mxCell>
        <mxCell id="FCnmbDO2Q9FQIWUgZBEj-8" value="" style="edgeStyle=orthogonalEdgeStyle;rounded=0;orthogonalLoop=1;jettySize=auto;html=1;" edge="1" parent="1" source="ILRgqHF_yuSfpRP-waWx-48" target="FCnmbDO2Q9FQIWUgZBEj-7">
          <mxGeometry relative="1" as="geometry" />
        </mxCell>
        <mxCell id="ILRgqHF_yuSfpRP-waWx-48" value="&lt;div&gt;(d1==1 &amp;amp;&amp;amp; d2==2 &amp;amp;&amp;amp; d3==3 &amp;amp;&amp;amp; d4 == 4 &amp;amp;&amp;amp; d5 == 5) ||&lt;/div&gt;&lt;div&gt;(d1 == 2 &amp;amp;&amp;amp; d2 == 3 &amp;amp;&amp;amp; d3 == 4 &amp;amp;&amp;amp;d4 == 5 &amp;amp;&amp;amp; d5 == 6)&lt;/div&gt;" style="rhombus;whiteSpace=wrap;html=1;rounded=1;" vertex="1" parent="1">
          <mxGeometry y="890" width="460" height="80" as="geometry" />
        </mxCell>
        <mxCell id="FCnmbDO2Q9FQIWUgZBEj-2" value="" style="edgeStyle=orthogonalEdgeStyle;rounded=0;orthogonalLoop=1;jettySize=auto;html=1;" edge="1" parent="1" source="ILRgqHF_yuSfpRP-waWx-50" target="FCnmbDO2Q9FQIWUgZBEj-1">
          <mxGeometry relative="1" as="geometry" />
        </mxCell>
        <mxCell id="ILRgqHF_yuSfpRP-waWx-50" value="--rllsLft" style="whiteSpace=wrap;html=1;rounded=1;" vertex="1" parent="1">
          <mxGeometry x="510" y="1107.5" width="90" height="30" as="geometry" />
        </mxCell>
        <mxCell id="FCnmbDO2Q9FQIWUgZBEj-1" value="page 3 a" style="ellipse;whiteSpace=wrap;html=1;rounded=1;" vertex="1" parent="1">
          <mxGeometry x="700" y="1090" width="70" height="65" as="geometry" />
        </mxCell>
        <mxCell id="FCnmbDO2Q9FQIWUgZBEj-6" value="" style="edgeStyle=orthogonalEdgeStyle;rounded=0;orthogonalLoop=1;jettySize=auto;html=1;" edge="1" parent="1" source="FCnmbDO2Q9FQIWUgZBEj-3" target="FCnmbDO2Q9FQIWUgZBEj-5">
          <mxGeometry relative="1" as="geometry" />
        </mxCell>
        <mxCell id="FCnmbDO2Q9FQIWUgZBEj-3" value="Yahtzee!" style="shape=parallelogram;perimeter=parallelogramPerimeter;whiteSpace=wrap;html=1;fixedSize=1;rounded=1;" vertex="1" parent="1">
          <mxGeometry x="475" y="777.5" width="92.5" height="45" as="geometry" />
        </mxCell>
        <mxCell id="FCnmbDO2Q9FQIWUgZBEj-13" style="edgeStyle=orthogonalEdgeStyle;rounded=0;orthogonalLoop=1;jettySize=auto;html=1;exitX=1;exitY=0.5;exitDx=0;exitDy=0;entryX=0.5;entryY=0;entryDx=0;entryDy=0;" edge="1" parent="1" source="FCnmbDO2Q9FQIWUgZBEj-5" target="ILRgqHF_yuSfpRP-waWx-50">
          <mxGeometry relative="1" as="geometry">
            <Array as="points">
              <mxPoint x="810" y="855" />
              <mxPoint x="810" y="1070" />
              <mxPoint x="555" y="1070" />
            </Array>
          </mxGeometry>
        </mxCell>
        <mxCell id="FCnmbDO2Q9FQIWUgZBEj-5" value="output&amp;nbsp;Yahtzee! in file" style="rounded=1;whiteSpace=wrap;html=1;" vertex="1" parent="1">
          <mxGeometry x="630" y="825" width="120" height="60" as="geometry" />
        </mxCell>
        <mxCell id="FCnmbDO2Q9FQIWUgZBEj-12" value="" style="edgeStyle=orthogonalEdgeStyle;rounded=0;orthogonalLoop=1;jettySize=auto;html=1;" edge="1" parent="1" source="FCnmbDO2Q9FQIWUgZBEj-7" target="FCnmbDO2Q9FQIWUgZBEj-11">
          <mxGeometry relative="1" as="geometry" />
        </mxCell>
        <mxCell id="FCnmbDO2Q9FQIWUgZBEj-7" value="Large Straight!" style="shape=parallelogram;perimeter=parallelogramPerimeter;whiteSpace=wrap;html=1;fixedSize=1;rounded=1;" vertex="1" parent="1">
          <mxGeometry x="461.25" y="900" width="120" height="60" as="geometry" />
        </mxCell>
        <mxCell id="FCnmbDO2Q9FQIWUgZBEj-14" style="edgeStyle=orthogonalEdgeStyle;rounded=0;orthogonalLoop=1;jettySize=auto;html=1;exitX=1;exitY=0.5;exitDx=0;exitDy=0;" edge="1" parent="1" source="FCnmbDO2Q9FQIWUgZBEj-11" target="ILRgqHF_yuSfpRP-waWx-50">
          <mxGeometry relative="1" as="geometry">
            <Array as="points">
              <mxPoint x="810" y="1000" />
              <mxPoint x="810" y="1069" />
              <mxPoint x="555" y="1069" />
            </Array>
          </mxGeometry>
        </mxCell>
        <mxCell id="FCnmbDO2Q9FQIWUgZBEj-11" value="output&amp;nbsp; &quot;Large Straight!&quot; in file" style="rounded=1;whiteSpace=wrap;html=1;" vertex="1" parent="1">
          <mxGeometry x="585" y="970" width="185" height="60" as="geometry" />
        </mxCell>
      </root>
    </mxGraphModel>
  </diagram>
  <diagram id="pMipoLM37hD_jgwpFhtq" name="Page-5">
    <mxGraphModel dx="1615" dy="832" grid="1" gridSize="10" guides="1" tooltips="1" connect="1" arrows="1" fold="1" page="1" pageScale="1" pageWidth="827" pageHeight="1169" math="0" shadow="0">
      <root>
        <mxCell id="0" />
        <mxCell id="1" parent="0" />
        <mxCell id="b8eeqvod4poeso2Xze_0-37" value="" style="edgeStyle=orthogonalEdgeStyle;rounded=0;orthogonalLoop=1;jettySize=auto;html=1;" edge="1" parent="1" target="b8eeqvod4poeso2Xze_0-4">
          <mxGeometry relative="1" as="geometry">
            <mxPoint x="83.5" y="70" as="sourcePoint" />
          </mxGeometry>
        </mxCell>
        <mxCell id="b8eeqvod4poeso2Xze_0-3" value="page 5" style="ellipse;whiteSpace=wrap;html=1;" vertex="1" parent="1">
          <mxGeometry x="48.5" y="10" width="70" height="60" as="geometry" />
        </mxCell>
        <mxCell id="b8eeqvod4poeso2Xze_0-7" value="" style="edgeStyle=orthogonalEdgeStyle;rounded=0;orthogonalLoop=1;jettySize=auto;html=1;" edge="1" parent="1" source="b8eeqvod4poeso2Xze_0-4" target="b8eeqvod4poeso2Xze_0-6">
          <mxGeometry relative="1" as="geometry" />
        </mxCell>
        <mxCell id="b8eeqvod4poeso2Xze_0-4" value="hold dice 1:&lt;div&gt;d1&lt;/div&gt;&lt;div&gt;chce&lt;/div&gt;" style="shape=parallelogram;perimeter=parallelogramPerimeter;whiteSpace=wrap;html=1;fixedSize=1;" vertex="1" parent="1">
          <mxGeometry x="26" y="90" width="115" height="50" as="geometry" />
        </mxCell>
        <mxCell id="b8eeqvod4poeso2Xze_0-9" value="" style="edgeStyle=orthogonalEdgeStyle;rounded=0;orthogonalLoop=1;jettySize=auto;html=1;" edge="1" parent="1" source="b8eeqvod4poeso2Xze_0-6" target="b8eeqvod4poeso2Xze_0-8">
          <mxGeometry relative="1" as="geometry" />
        </mxCell>
        <mxCell id="b8eeqvod4poeso2Xze_0-11" value="" style="edgeStyle=orthogonalEdgeStyle;rounded=0;orthogonalLoop=1;jettySize=auto;html=1;" edge="1" parent="1" source="b8eeqvod4poeso2Xze_0-6" target="b8eeqvod4poeso2Xze_0-10">
          <mxGeometry relative="1" as="geometry" />
        </mxCell>
        <mxCell id="b8eeqvod4poeso2Xze_0-6" value="chce = Y" style="rhombus;whiteSpace=wrap;html=1;" vertex="1" parent="1">
          <mxGeometry x="171" y="80" width="80" height="70" as="geometry" />
        </mxCell>
        <mxCell id="b8eeqvod4poeso2Xze_0-13" value="" style="edgeStyle=orthogonalEdgeStyle;rounded=0;orthogonalLoop=1;jettySize=auto;html=1;" edge="1" parent="1" source="b8eeqvod4poeso2Xze_0-8" target="b8eeqvod4poeso2Xze_0-12">
          <mxGeometry relative="1" as="geometry" />
        </mxCell>
        <mxCell id="b8eeqvod4poeso2Xze_0-17" value="" style="edgeStyle=orthogonalEdgeStyle;rounded=0;orthogonalLoop=1;jettySize=auto;html=1;" edge="1" parent="1" source="b8eeqvod4poeso2Xze_0-8" target="b8eeqvod4poeso2Xze_0-16">
          <mxGeometry relative="1" as="geometry" />
        </mxCell>
        <mxCell id="b8eeqvod4poeso2Xze_0-8" value="chce =&amp;nbsp;N" style="rhombus;whiteSpace=wrap;html=1;" vertex="1" parent="1">
          <mxGeometry x="171" y="177.5" width="80" height="65" as="geometry" />
        </mxCell>
        <mxCell id="b8eeqvod4poeso2Xze_0-88" style="edgeStyle=orthogonalEdgeStyle;rounded=0;orthogonalLoop=1;jettySize=auto;html=1;entryX=0.5;entryY=0;entryDx=0;entryDy=0;" edge="1" parent="1" source="b8eeqvod4poeso2Xze_0-10" target="b8eeqvod4poeso2Xze_0-72">
          <mxGeometry relative="1" as="geometry">
            <Array as="points">
              <mxPoint x="380" y="115" />
              <mxPoint x="380" y="310" />
              <mxPoint x="61" y="310" />
            </Array>
          </mxGeometry>
        </mxCell>
        <mxCell id="b8eeqvod4poeso2Xze_0-10" value="h1 = true" style="rounded=1;whiteSpace=wrap;html=1;" vertex="1" parent="1">
          <mxGeometry x="311" y="100" width="59" height="35" as="geometry" />
        </mxCell>
        <mxCell id="b8eeqvod4poeso2Xze_0-89" style="edgeStyle=orthogonalEdgeStyle;rounded=0;orthogonalLoop=1;jettySize=auto;html=1;exitX=1;exitY=0.5;exitDx=0;exitDy=0;" edge="1" parent="1" source="b8eeqvod4poeso2Xze_0-12">
          <mxGeometry relative="1" as="geometry">
            <mxPoint x="61" y="330" as="targetPoint" />
            <Array as="points">
              <mxPoint x="380" y="210" />
              <mxPoint x="380" y="310" />
              <mxPoint x="62" y="310" />
            </Array>
          </mxGeometry>
        </mxCell>
        <mxCell id="b8eeqvod4poeso2Xze_0-12" value="h1 = false" style="rounded=1;whiteSpace=wrap;html=1;arcSize=36;" vertex="1" parent="1">
          <mxGeometry x="311" y="193.75" width="59" height="32.5" as="geometry" />
        </mxCell>
        <mxCell id="b8eeqvod4poeso2Xze_0-14" value="True" style="text;html=1;align=center;verticalAlign=middle;resizable=0;points=[];autosize=1;strokeColor=none;fillColor=none;" vertex="1" parent="1">
          <mxGeometry x="251" y="95" width="50" height="30" as="geometry" />
        </mxCell>
        <mxCell id="b8eeqvod4poeso2Xze_0-15" value="False" style="text;html=1;align=center;verticalAlign=middle;resizable=0;points=[];autosize=1;strokeColor=none;fillColor=none;" vertex="1" parent="1">
          <mxGeometry x="161" y="150" width="50" height="30" as="geometry" />
        </mxCell>
        <mxCell id="b8eeqvod4poeso2Xze_0-87" style="edgeStyle=orthogonalEdgeStyle;rounded=0;orthogonalLoop=1;jettySize=auto;html=1;exitX=0.5;exitY=1;exitDx=0;exitDy=0;entryX=0.5;entryY=0;entryDx=0;entryDy=0;" edge="1" parent="1" source="b8eeqvod4poeso2Xze_0-16" target="b8eeqvod4poeso2Xze_0-72">
          <mxGeometry relative="1" as="geometry">
            <Array as="points">
              <mxPoint x="211" y="310" />
              <mxPoint x="61" y="310" />
            </Array>
          </mxGeometry>
        </mxCell>
        <mxCell id="b8eeqvod4poeso2Xze_0-16" value="Invalid Choice dice will reroll!" style="rounded=1;whiteSpace=wrap;html=1;" vertex="1" parent="1">
          <mxGeometry x="126" y="270" width="170" height="30" as="geometry" />
        </mxCell>
        <mxCell id="b8eeqvod4poeso2Xze_0-18" value="False" style="text;html=1;align=center;verticalAlign=middle;resizable=0;points=[];autosize=1;strokeColor=none;fillColor=none;" vertex="1" parent="1">
          <mxGeometry x="161" y="242.5" width="50" height="30" as="geometry" />
        </mxCell>
        <mxCell id="b8eeqvod4poeso2Xze_0-34" value="True" style="text;html=1;align=center;verticalAlign=middle;resizable=0;points=[];autosize=1;strokeColor=none;fillColor=none;" vertex="1" parent="1">
          <mxGeometry x="251" y="95" width="50" height="30" as="geometry" />
        </mxCell>
        <mxCell id="b8eeqvod4poeso2Xze_0-35" value="True" style="text;html=1;align=center;verticalAlign=middle;resizable=0;points=[];autosize=1;strokeColor=none;fillColor=none;" vertex="1" parent="1">
          <mxGeometry x="251" y="185" width="50" height="30" as="geometry" />
        </mxCell>
        <mxCell id="b8eeqvod4poeso2Xze_0-70" value="&lt;span style=&quot;color: rgba(0, 0, 0, 0); font-family: monospace; font-size: 0px; text-align: start;&quot;&gt;%3CmxGraphModel%3E%3Croot%3E%3CmxCell%20id%3D%220%22%2F%3E%3CmxCell%20id%3D%221%22%20parent%3D%220%22%2F%3E%3CmxCell%20id%3D%222%22%20value%3D%22%22%20style%3D%22edgeStyle%3DorthogonalEdgeStyle%3Brounded%3D0%3BorthogonalLoop%3D1%3BjettySize%3Dauto%3Bhtml%3D1%3B%22%20edge%3D%221%22%20source%3D%223%22%20target%3D%226%22%20parent%3D%221%22%3E%3CmxGeometry%20relative%3D%221%22%20as%3D%22geometry%22%2F%3E%3C%2FmxCell%3E%3CmxCell%20id%3D%223%22%20value%3D%22hold%20dice%201%3A%26lt%3Bdiv%26gt%3Bd1%26lt%3B%2Fdiv%26gt%3B%26lt%3Bdiv%26gt%3Bchce%26lt%3B%2Fdiv%26gt%3B%22%20style%3D%22shape%3Dparallelogram%3Bperimeter%3DparallelogramPerimeter%3BwhiteSpace%3Dwrap%3Bhtml%3D1%3BfixedSize%3D1%3B%22%20vertex%3D%221%22%20parent%3D%221%22%3E%3CmxGeometry%20x%3D%2265%22%20y%3D%2290%22%20width%3D%22115%22%20height%3D%2250%22%20as%3D%22geometry%22%2F%3E%3C%2FmxCell%3E%3CmxCell%20id%3D%224%22%20value%3D%22%22%20style%3D%22edgeStyle%3DorthogonalEdgeStyle%3Brounded%3D0%3BorthogonalLoop%3D1%3BjettySize%3Dauto%3Bhtml%3D1%3B%22%20edge%3D%221%22%20source%3D%226%22%20target%3D%229%22%20parent%3D%221%22%3E%3CmxGeometry%20relative%3D%221%22%20as%3D%22geometry%22%2F%3E%3C%2FmxCell%3E%3CmxCell%20id%3D%225%22%20value%3D%22%22%20style%3D%22edgeStyle%3DorthogonalEdgeStyle%3Brounded%3D0%3BorthogonalLoop%3D1%3BjettySize%3Dauto%3Bhtml%3D1%3B%22%20edge%3D%221%22%20source%3D%226%22%20target%3D%2210%22%20parent%3D%221%22%3E%3CmxGeometry%20relative%3D%221%22%20as%3D%22geometry%22%2F%3E%3C%2FmxCell%3E%3CmxCell%20id%3D%226%22%20value%3D%22chce%20%3D%20Y%22%20style%3D%22rhombus%3BwhiteSpace%3Dwrap%3Bhtml%3D1%3B%22%20vertex%3D%221%22%20parent%3D%221%22%3E%3CmxGeometry%20x%3D%22210%22%20y%3D%2280%22%20width%3D%2280%22%20height%3D%2270%22%20as%3D%22geometry%22%2F%3E%3C%2FmxCell%3E%3CmxCell%20id%3D%227%22%20value%3D%22%22%20style%3D%22edgeStyle%3DorthogonalEdgeStyle%3Brounded%3D0%3BorthogonalLoop%3D1%3BjettySize%3Dauto%3Bhtml%3D1%3B%22%20edge%3D%221%22%20source%3D%229%22%20target%3D%2211%22%20parent%3D%221%22%3E%3CmxGeometry%20relative%3D%221%22%20as%3D%22geometry%22%2F%3E%3C%2FmxCell%3E%3CmxCell%20id%3D%228%22%20value%3D%22%22%20style%3D%22edgeStyle%3DorthogonalEdgeStyle%3Brounded%3D0%3BorthogonalLoop%3D1%3BjettySize%3Dauto%3Bhtml%3D1%3B%22%20edge%3D%221%22%20source%3D%229%22%20target%3D%2214%22%20parent%3D%221%22%3E%3CmxGeometry%20relative%3D%221%22%20as%3D%22geometry%22%2F%3E%3C%2FmxCell%3E%3CmxCell%20id%3D%229%22%20value%3D%22chce%20%3D%26amp%3Bnbsp%3BN%22%20style%3D%22rhombus%3BwhiteSpace%3Dwrap%3Bhtml%3D1%3B%22%20vertex%3D%221%22%20parent%3D%221%22%3E%3CmxGeometry%20x%3D%22210%22%20y%3D%22177.5%22%20width%3D%2280%22%20height%3D%2265%22%20as%3D%22geometry%22%2F%3E%3C%2FmxCell%3E%3CmxCell%20id%3D%2210%22%20value%3D%22h1%20%3D%20true%22%20style%3D%22rounded%3D1%3BwhiteSpace%3Dwrap%3Bhtml%3D1%3B%22%20vertex%3D%221%22%20parent%3D%221%22%3E%3CmxGeometry%20x%3D%22350%22%20y%3D%2290%22%20width%3D%2280%22%20height%3D%2250%22%20as%3D%22geometry%22%2F%3E%3C%2FmxCell%3E%3CmxCell%20id%3D%2211%22%20value%3D%22h1%20%3D%20false%22%20style%3D%22rounded%3D1%3BwhiteSpace%3Dwrap%3Bhtml%3D1%3B%22%20vertex%3D%221%22%20parent%3D%221%22%3E%3CmxGeometry%20x%3D%22350%22%20y%3D%22185%22%20width%3D%2280%22%20height%3D%2250%22%20as%3D%22geometry%22%2F%3E%3C%2FmxCell%3E%3CmxCell%20id%3D%2212%22%20value%3D%22True%22%20style%3D%22text%3Bhtml%3D1%3Balign%3Dcenter%3BverticalAlign%3Dmiddle%3Bresizable%3D0%3Bpoints%3D%5B%5D%3Bautosize%3D1%3BstrokeColor%3Dnone%3BfillColor%3Dnone%3B%22%20vertex%3D%221%22%20parent%3D%221%22%3E%3CmxGeometry%20x%3D%22290%22%20y%3D%2295%22%20width%3D%2250%22%20height%3D%2230%22%20as%3D%22geometry%22%2F%3E%3C%2FmxCell%3E%3CmxCell%20id%3D%2213%22%20value%3D%22False%22%20style%3D%22text%3Bhtml%3D1%3Balign%3Dcenter%3BverticalAlign%3Dmiddle%3Bresizable%3D0%3Bpoints%3D%5B%5D%3Bautosize%3D1%3BstrokeColor%3Dnone%3BfillColor%3Dnone%3B%22%20vertex%3D%221%22%20parent%3D%221%22%3E%3CmxGeometry%20x%3D%22200%22%20y%3D%22150%22%20width%3D%2250%22%20height%3D%2230%22%20as%3D%22geometry%22%2F%3E%3C%2FmxCell%3E%3CmxCell%20id%3D%2214%22%20value%3D%22Invalid%20Choice%20dice%20will%20reroll!%22%20style%3D%22rounded%3D1%3BwhiteSpace%3Dwrap%3Bhtml%3D1%3B%22%20vertex%3D%221%22%20parent%3D%221%22%3E%3CmxGeometry%20x%3D%22165%22%20y%3D%22270%22%20width%3D%22170%22%20height%3D%2230%22%20as%3D%22geometry%22%2F%3E%3C%2FmxCell%3E%3CmxCell%20id%3D%2215%22%20value%3D%22False%22%20style%3D%22text%3Bhtml%3D1%3Balign%3Dcenter%3BverticalAlign%3Dmiddle%3Bresizable%3D0%3Bpoints%3D%5B%5D%3Bautosize%3D1%3BstrokeColor%3Dnone%3BfillColor%3Dnone%3B%22%20vertex%3D%221%22%20parent%3D%221%22%3E%3CmxGeometry%20x%3D%22200%22%20y%3D%22242.5%22%20width%3D%2250%22%20height%3D%2230%22%20as%3D%22geometry%22%2F%3E%3C%2FmxCell%3E%3CmxCell%20id%3D%2216%22%20value%3D%22True%22%20style%3D%22text%3Bhtml%3D1%3Balign%3Dcenter%3BverticalAlign%3Dmiddle%3Bresizable%3D0%3Bpoints%3D%5B%5D%3Bautosize%3D1%3BstrokeColor%3Dnone%3BfillColor%3Dnone%3B%22%20vertex%3D%221%22%20parent%3D%221%22%3E%3CmxGeometry%20x%3D%22290%22%20y%3D%2295%22%20width%3D%2250%22%20height%3D%2230%22%20as%3D%22geometry%22%2F%3E%3C%2FmxCell%3E%3CmxCell%20id%3D%2217%22%20value%3D%22True%22%20style%3D%22text%3Bhtml%3D1%3Balign%3Dcenter%3BverticalAlign%3Dmiddle%3Bresizable%3D0%3Bpoints%3D%5B%5D%3Bautosize%3D1%3BstrokeColor%3Dnone%3BfillColor%3Dnone%3B%22%20vertex%3D%221%22%20parent%3D%221%22%3E%3CmxGeometry%20x%3D%22290%22%20y%3D%22185%22%20width%3D%2250%22%20height%3D%2230%22%20as%3D%22geometry%22%2F%3E%3C%2FmxCell%3E%3C%2Froot%3E%3C%2FmxGraphModel%3E&lt;/span&gt;&lt;span style=&quot;color: rgba(0, 0, 0, 0); font-family: monospace; font-size: 0px; text-align: start;&quot;&gt;%3CmxGraphModel%3E%3Croot%3E%3CmxCell%20id%3D%220%22%2F%3E%3CmxCell%20id%3D%221%22%20parent%3D%220%22%2F%3E%3CmxCell%20id%3D%222%22%20value%3D%22%22%20style%3D%22edgeStyle%3DorthogonalEdgeStyle%3Brounded%3D0%3BorthogonalLoop%3D1%3BjettySize%3Dauto%3Bhtml%3D1%3B%22%20edge%3D%221%22%20source%3D%223%22%20target%3D%226%22%20parent%3D%221%22%3E%3CmxGeometry%20relative%3D%221%22%20as%3D%22geometry%22%2F%3E%3C%2FmxCell%3E%3CmxCell%20id%3D%223%22%20value%3D%22hold%20dice%201%3A%26lt%3Bdiv%26gt%3Bd1%26lt%3B%2Fdiv%26gt%3B%26lt%3Bdiv%26gt%3Bchce%26lt%3B%2Fdiv%26gt%3B%22%20style%3D%22shape%3Dparallelogram%3Bperimeter%3DparallelogramPerimeter%3BwhiteSpace%3Dwrap%3Bhtml%3D1%3BfixedSize%3D1%3B%22%20vertex%3D%221%22%20parent%3D%221%22%3E%3CmxGeometry%20x%3D%2265%22%20y%3D%2290%22%20width%3D%22115%22%20height%3D%2250%22%20as%3D%22geometry%22%2F%3E%3C%2FmxCell%3E%3CmxCell%20id%3D%224%22%20value%3D%22%22%20style%3D%22edgeStyle%3DorthogonalEdgeStyle%3Brounded%3D0%3BorthogonalLoop%3D1%3BjettySize%3Dauto%3Bhtml%3D1%3B%22%20edge%3D%221%22%20source%3D%226%22%20target%3D%229%22%20parent%3D%221%22%3E%3CmxGeometry%20relative%3D%221%22%20as%3D%22geometry%22%2F%3E%3C%2FmxCell%3E%3CmxCell%20id%3D%225%22%20value%3D%22%22%20style%3D%22edgeStyle%3DorthogonalEdgeStyle%3Brounded%3D0%3BorthogonalLoop%3D1%3BjettySize%3Dauto%3Bhtml%3D1%3B%22%20edge%3D%221%22%20source%3D%226%22%20target%3D%2210%22%20parent%3D%221%22%3E%3CmxGeometry%20relative%3D%221%22%20as%3D%22geometry%22%2F%3E%3C%2FmxCell%3E%3CmxCell%20id%3D%226%22%20value%3D%22chce%20%3D%20Y%22%20style%3D%22rhombus%3BwhiteSpace%3Dwrap%3Bhtml%3D1%3B%22%20vertex%3D%221%22%20parent%3D%221%22%3E%3CmxGeometry%20x%3D%22210%22%20y%3D%2280%22%20width%3D%2280%22%20height%3D%2270%22%20as%3D%22geometry%22%2F%3E%3C%2FmxCell%3E%3CmxCell%20id%3D%227%22%20value%3D%22%22%20style%3D%22edgeStyle%3DorthogonalEdgeStyle%3Brounded%3D0%3BorthogonalLoop%3D1%3BjettySize%3Dauto%3Bhtml%3D1%3B%22%20edge%3D%221%22%20source%3D%229%22%20target%3D%2211%22%20parent%3D%221%22%3E%3CmxGeometry%20relative%3D%221%22%20as%3D%22geometry%22%2F%3E%3C%2FmxCell%3E%3CmxCell%20id%3D%228%22%20value%3D%22%22%20style%3D%22edgeStyle%3DorthogonalEdgeStyle%3Brounded%3D0%3BorthogonalLoop%3D1%3BjettySize%3Dauto%3Bhtml%3D1%3B%22%20edge%3D%221%22%20source%3D%229%22%20target%3D%2214%22%20parent%3D%221%22%3E%3CmxGeometry%20relative%3D%221%22%20as%3D%22geometry%22%2F%3E%3C%2FmxCell%3E%3CmxCell%20id%3D%229%22%20value%3D%22chce%20%3D%26amp%3Bnbsp%3BN%22%20style%3D%22rhombus%3BwhiteSpace%3Dwrap%3Bhtml%3D1%3B%22%20vertex%3D%221%22%20parent%3D%221%22%3E%3CmxGeometry%20x%3D%22210%22%20y%3D%22177.5%22%20width%3D%2280%22%20height%3D%2265%22%20as%3D%22geometry%22%2F%3E%3C%2FmxCell%3E%3CmxCell%20id%3D%2210%22%20value%3D%22h1%20%3D%20true%22%20style%3D%22rounded%3D1%3BwhiteSpace%3Dwrap%3Bhtml%3D1%3B%22%20vertex%3D%221%22%20parent%3D%221%22%3E%3CmxGeometry%20x%3D%22350%22%20y%3D%2290%22%20width%3D%2280%22%20height%3D%2250%22%20as%3D%22geometry%22%2F%3E%3C%2FmxCell%3E%3CmxCell%20id%3D%2211%22%20value%3D%22h1%20%3D%20false%22%20style%3D%22rounded%3D1%3BwhiteSpace%3Dwrap%3Bhtml%3D1%3B%22%20vertex%3D%221%22%20parent%3D%221%22%3E%3CmxGeometry%20x%3D%22350%22%20y%3D%22185%22%20width%3D%2280%22%20height%3D%2250%22%20as%3D%22geometry%22%2F%3E%3C%2FmxCell%3E%3CmxCell%20id%3D%2212%22%20value%3D%22True%22%20style%3D%22text%3Bhtml%3D1%3Balign%3Dcenter%3BverticalAlign%3Dmiddle%3Bresizable%3D0%3Bpoints%3D%5B%5D%3Bautosize%3D1%3BstrokeColor%3Dnone%3BfillColor%3Dnone%3B%22%20vertex%3D%221%22%20parent%3D%221%22%3E%3CmxGeometry%20x%3D%22290%22%20y%3D%2295%22%20width%3D%2250%22%20height%3D%2230%22%20as%3D%22geometry%22%2F%3E%3C%2FmxCell%3E%3CmxCell%20id%3D%2213%22%20value%3D%22False%22%20style%3D%22text%3Bhtml%3D1%3Balign%3Dcenter%3BverticalAlign%3Dmiddle%3Bresizable%3D0%3Bpoints%3D%5B%5D%3Bautosize%3D1%3BstrokeColor%3Dnone%3BfillColor%3Dnone%3B%22%20vertex%3D%221%22%20parent%3D%221%22%3E%3CmxGeometry%20x%3D%22200%22%20y%3D%22150%22%20width%3D%2250%22%20height%3D%2230%22%20as%3D%22geometry%22%2F%3E%3C%2FmxCell%3E%3CmxCell%20id%3D%2214%22%20value%3D%22Invalid%20Choice%20dice%20will%20reroll!%22%20style%3D%22rounded%3D1%3BwhiteSpace%3Dwrap%3Bhtml%3D1%3B%22%20vertex%3D%221%22%20parent%3D%221%22%3E%3CmxGeometry%20x%3D%22165%22%20y%3D%22270%22%20width%3D%22170%22%20height%3D%2230%22%20as%3D%22geometry%22%2F%3E%3C%2FmxCell%3E%3CmxCell%20id%3D%2215%22%20value%3D%22False%22%20style%3D%22text%3Bhtml%3D1%3Balign%3Dcenter%3BverticalAlign%3Dmiddle%3Bresizable%3D0%3Bpoints%3D%5B%5D%3Bautosize%3D1%3BstrokeColor%3Dnone%3BfillColor%3Dnone%3B%22%20vertex%3D%221%22%20parent%3D%221%22%3E%3CmxGeometry%20x%3D%22200%22%20y%3D%22242.5%22%20width%3D%2250%22%20height%3D%2230%22%20as%3D%22geometry%22%2F%3E%3C%2FmxCell%3E%3CmxCell%20id%3D%2216%22%20value%3D%22True%22%20style%3D%22text%3Bhtml%3D1%3Balign%3Dcenter%3BverticalAlign%3Dmiddle%3Bresizable%3D0%3Bpoints%3D%5B%5D%3Bautosize%3D1%3BstrokeColor%3Dnone%3BfillColor%3Dnone%3B%22%20vertex%3D%221%22%20parent%3D%221%22%3E%3CmxGeometry%20x%3D%22290%22%20y%3D%2295%22%20width%3D%2250%22%20height%3D%2230%22%20as%3D%22geometry%22%2F%3E%3C%2FmxCell%3E%3CmxCell%20id%3D%2217%22%20value%3D%22True%22%20style%3D%22text%3Bhtml%3D1%3Balign%3Dcenter%3BverticalAlign%3Dmiddle%3Bresizable%3D0%3Bpoints%3D%5B%5D%3Bautosize%3D1%3BstrokeColor%3Dnone%3BfillColor%3Dnone%3B%22%20vertex%3D%221%22%20parent%3D%221%22%3E%3CmxGeometry%20x%3D%22290%22%20y%3D%22185%22%20width%3D%2250%22%20height%3D%2230%22%20as%3D%22geometry%22%2F%3E%3C%2FmxCell%3E%3C%2Froot%3E%3C%2FmxGraphModel%3E&lt;/span&gt;&lt;span style=&quot;color: rgba(0, 0, 0, 0); font-family: monospace; font-size: 0px; text-align: start;&quot;&gt;%3CmxGraphModel%3E%3Croot%3E%3CmxCell%20id%3D%220%22%2F%3E%3CmxCell%20id%3D%221%22%20parent%3D%220%22%2F%3E%3CmxCell%20id%3D%222%22%20value%3D%22%22%20style%3D%22edgeStyle%3DorthogonalEdgeStyle%3Brounded%3D0%3BorthogonalLoop%3D1%3BjettySize%3Dauto%3Bhtml%3D1%3B%22%20edge%3D%221%22%20source%3D%223%22%20target%3D%226%22%20parent%3D%221%22%3E%3CmxGeometry%20relative%3D%221%22%20as%3D%22geometry%22%2F%3E%3C%2FmxCell%3E%3CmxCell%20id%3D%223%22%20value%3D%22hold%20dice%201%3A%26lt%3Bdiv%26gt%3Bd1%26lt%3B%2Fdiv%26gt%3B%26lt%3Bdiv%26gt%3Bchce%26lt%3B%2Fdiv%26gt%3B%22%20style%3D%22shape%3Dparallelogram%3Bperimeter%3DparallelogramPerimeter%3BwhiteSpace%3Dwrap%3Bhtml%3D1%3BfixedSize%3D1%3B%22%20vertex%3D%221%22%20parent%3D%221%22%3E%3CmxGeometry%20x%3D%2265%22%20y%3D%2290%22%20width%3D%22115%22%20height%3D%2250%22%20as%3D%22geometry%22%2F%3E%3C%2FmxCell%3E%3CmxCell%20id%3D%224%22%20value%3D%22%22%20style%3D%22edgeStyle%3DorthogonalEdgeStyle%3Brounded%3D0%3BorthogonalLoop%3D1%3BjettySize%3Dauto%3Bhtml%3D1%3B%22%20edge%3D%221%22%20source%3D%226%22%20target%3D%229%22%20parent%3D%221%22%3E%3CmxGeometry%20relative%3D%221%22%20as%3D%22geometry%22%2F%3E%3C%2FmxCell%3E%3CmxCell%20id%3D%225%22%20value%3D%22%22%20style%3D%22edgeStyle%3DorthogonalEdgeStyle%3Brounded%3D0%3BorthogonalLoop%3D1%3BjettySize%3Dauto%3Bhtml%3D1%3B%22%20edge%3D%221%22%20source%3D%226%22%20target%3D%2210%22%20parent%3D%221%22%3E%3CmxGeometry%20relative%3D%221%22%20as%3D%22geometry%22%2F%3E%3C%2FmxCell%3E%3CmxCell%20id%3D%226%22%20value%3D%22chce%20%3D%20Y%22%20style%3D%22rhombus%3BwhiteSpace%3Dwrap%3Bhtml%3D1%3B%22%20vertex%3D%221%22%20parent%3D%221%22%3E%3CmxGeometry%20x%3D%22210%22%20y%3D%2280%22%20width%3D%2280%22%20height%3D%2270%22%20as%3D%22geometry%22%2F%3E%3C%2FmxCell%3E%3CmxCell%20id%3D%227%22%20value%3D%22%22%20style%3D%22edgeStyle%3DorthogonalEdgeStyle%3Brounded%3D0%3BorthogonalLoop%3D1%3BjettySize%3Dauto%3Bhtml%3D1%3B%22%20edge%3D%221%22%20source%3D%229%22%20target%3D%2211%22%20parent%3D%221%22%3E%3CmxGeometry%20relative%3D%221%22%20as%3D%22geometry%22%2F%3E%3C%2FmxCell%3E%3CmxCell%20id%3D%228%22%20value%3D%22%22%20style%3D%22edgeStyle%3DorthogonalEdgeStyle%3Brounded%3D0%3BorthogonalLoop%3D1%3BjettySize%3Dauto%3Bhtml%3D1%3B%22%20edge%3D%221%22%20source%3D%229%22%20target%3D%2214%22%20parent%3D%221%22%3E%3CmxGeometry%20relative%3D%221%22%20as%3D%22geometry%22%2F%3E%3C%2FmxCell%3E%3CmxCell%20id%3D%229%22%20value%3D%22chce%20%3D%26amp%3Bnbsp%3BN%22%20style%3D%22rhombus%3BwhiteSpace%3Dwrap%3Bhtml%3D1%3B%22%20vertex%3D%221%22%20parent%3D%221%22%3E%3CmxGeometry%20x%3D%22210%22%20y%3D%22177.5%22%20width%3D%2280%22%20height%3D%2265%22%20as%3D%22geometry%22%2F%3E%3C%2FmxCell%3E%3CmxCell%20id%3D%2210%22%20value%3D%22h1%20%3D%20true%22%20style%3D%22rounded%3D1%3BwhiteSpace%3Dwrap%3Bhtml%3D1%3B%22%20vertex%3D%221%22%20parent%3D%221%22%3E%3CmxGeometry%20x%3D%22350%22%20y%3D%2290%22%20width%3D%2280%22%20height%3D%2250%22%20as%3D%22geometry%22%2F%3E%3C%2FmxCell%3E%3CmxCell%20id%3D%2211%22%20value%3D%22h1%20%3D%20false%22%20style%3D%22rounded%3D1%3BwhiteSpace%3Dwrap%3Bhtml%3D1%3B%22%20vertex%3D%221%22%20parent%3D%221%22%3E%3CmxGeometry%20x%3D%22350%22%20y%3D%22185%22%20width%3D%2280%22%20height%3D%2250%22%20as%3D%22geometry%22%2F%3E%3C%2FmxCell%3E%3CmxCell%20id%3D%2212%22%20value%3D%22True%22%20style%3D%22text%3Bhtml%3D1%3Balign%3Dcenter%3BverticalAlign%3Dmiddle%3Bresizable%3D0%3Bpoints%3D%5B%5D%3Bautosize%3D1%3BstrokeColor%3Dnone%3BfillColor%3Dnone%3B%22%20vertex%3D%221%22%20parent%3D%221%22%3E%3CmxGeometry%20x%3D%22290%22%20y%3D%2295%22%20width%3D%2250%22%20height%3D%2230%22%20as%3D%22geometry%22%2F%3E%3C%2FmxCell%3E%3CmxCell%20id%3D%2213%22%20value%3D%22False%22%20style%3D%22text%3Bhtml%3D1%3Balign%3Dcenter%3BverticalAlign%3Dmiddle%3Bresizable%3D0%3Bpoints%3D%5B%5D%3Bautosize%3D1%3BstrokeColor%3Dnone%3BfillColor%3Dnone%3B%22%20vertex%3D%221%22%20parent%3D%221%22%3E%3CmxGeometry%20x%3D%22200%22%20y%3D%22150%22%20width%3D%2250%22%20height%3D%2230%22%20as%3D%22geometry%22%2F%3E%3C%2FmxCell%3E%3CmxCell%20id%3D%2214%22%20value%3D%22Invalid%20Choice%20dice%20will%20reroll!%22%20style%3D%22rounded%3D1%3BwhiteSpace%3Dwrap%3Bhtml%3D1%3B%22%20vertex%3D%221%22%20parent%3D%221%22%3E%3CmxGeometry%20x%3D%22165%22%20y%3D%22270%22%20width%3D%22170%22%20height%3D%2230%22%20as%3D%22geometry%22%2F%3E%3C%2FmxCell%3E%3CmxCell%20id%3D%2215%22%20value%3D%22False%22%20style%3D%22text%3Bhtml%3D1%3Balign%3Dcenter%3BverticalAlign%3Dmiddle%3Bresizable%3D0%3Bpoints%3D%5B%5D%3Bautosize%3D1%3BstrokeColor%3Dnone%3BfillColor%3Dnone%3B%22%20vertex%3D%221%22%20parent%3D%221%22%3E%3CmxGeometry%20x%3D%22200%22%20y%3D%22242.5%22%20width%3D%2250%22%20height%3D%2230%22%20as%3D%22geometry%22%2F%3E%3C%2FmxCell%3E%3CmxCell%20id%3D%2216%22%20value%3D%22True%22%20style%3D%22text%3Bhtml%3D1%3Balign%3Dcenter%3BverticalAlign%3Dmiddle%3Bresizable%3D0%3Bpoints%3D%5B%5D%3Bautosize%3D1%3BstrokeColor%3Dnone%3BfillColor%3Dnone%3B%22%20vertex%3D%221%22%20parent%3D%221%22%3E%3CmxGeometry%20x%3D%22290%22%20y%3D%2295%22%20width%3D%2250%22%20height%3D%2230%22%20as%3D%22geometry%22%2F%3E%3C%2FmxCell%3E%3CmxCell%20id%3D%2217%22%20value%3D%22True%22%20style%3D%22text%3Bhtml%3D1%3Balign%3Dcenter%3BverticalAlign%3Dmiddle%3Bresizable%3D0%3Bpoints%3D%5B%5D%3Bautosize%3D1%3BstrokeColor%3Dnone%3BfillColor%3Dnone%3B%22%20vertex%3D%221%22%20parent%3D%221%22%3E%3CmxGeometry%20x%3D%22290%22%20y%3D%22185%22%20width%3D%2250%22%20height%3D%2230%22%20as%3D%22geometry%22%2F%3E%3C%2FmxCell%3E%3C%2Froot%3E%3C%2FmxGraphModel%3E&lt;/span&gt;" style="text;html=1;align=center;verticalAlign=middle;resizable=0;points=[];autosize=1;strokeColor=none;fillColor=none;" vertex="1" parent="1">
          <mxGeometry x="121" y="348" width="20" height="30" as="geometry" />
        </mxCell>
        <mxCell id="b8eeqvod4poeso2Xze_0-71" value="" style="edgeStyle=orthogonalEdgeStyle;rounded=0;orthogonalLoop=1;jettySize=auto;html=1;" edge="1" parent="1" source="b8eeqvod4poeso2Xze_0-72" target="b8eeqvod4poeso2Xze_0-75">
          <mxGeometry relative="1" as="geometry" />
        </mxCell>
        <mxCell id="b8eeqvod4poeso2Xze_0-72" value="hold dice 2:&lt;div&gt;d2&lt;/div&gt;&lt;div&gt;chce&lt;/div&gt;" style="shape=parallelogram;perimeter=parallelogramPerimeter;whiteSpace=wrap;html=1;fixedSize=1;" vertex="1" parent="1">
          <mxGeometry x="3.5" y="330" width="115" height="50" as="geometry" />
        </mxCell>
        <mxCell id="b8eeqvod4poeso2Xze_0-73" value="" style="edgeStyle=orthogonalEdgeStyle;rounded=0;orthogonalLoop=1;jettySize=auto;html=1;" edge="1" parent="1" source="b8eeqvod4poeso2Xze_0-75" target="b8eeqvod4poeso2Xze_0-78">
          <mxGeometry relative="1" as="geometry" />
        </mxCell>
        <mxCell id="b8eeqvod4poeso2Xze_0-74" value="" style="edgeStyle=orthogonalEdgeStyle;rounded=0;orthogonalLoop=1;jettySize=auto;html=1;" edge="1" parent="1" source="b8eeqvod4poeso2Xze_0-75" target="b8eeqvod4poeso2Xze_0-79">
          <mxGeometry relative="1" as="geometry" />
        </mxCell>
        <mxCell id="b8eeqvod4poeso2Xze_0-75" value="chce = Y" style="rhombus;whiteSpace=wrap;html=1;" vertex="1" parent="1">
          <mxGeometry x="148.5" y="320" width="80" height="70" as="geometry" />
        </mxCell>
        <mxCell id="b8eeqvod4poeso2Xze_0-76" value="" style="edgeStyle=orthogonalEdgeStyle;rounded=0;orthogonalLoop=1;jettySize=auto;html=1;" edge="1" parent="1" source="b8eeqvod4poeso2Xze_0-78" target="b8eeqvod4poeso2Xze_0-80">
          <mxGeometry relative="1" as="geometry" />
        </mxCell>
        <mxCell id="b8eeqvod4poeso2Xze_0-77" value="" style="edgeStyle=orthogonalEdgeStyle;rounded=0;orthogonalLoop=1;jettySize=auto;html=1;" edge="1" parent="1" source="b8eeqvod4poeso2Xze_0-78" target="b8eeqvod4poeso2Xze_0-83">
          <mxGeometry relative="1" as="geometry" />
        </mxCell>
        <mxCell id="b8eeqvod4poeso2Xze_0-78" value="chce =&amp;nbsp;N" style="rhombus;whiteSpace=wrap;html=1;" vertex="1" parent="1">
          <mxGeometry x="148.5" y="417.5" width="80" height="65" as="geometry" />
        </mxCell>
        <mxCell id="b8eeqvod4poeso2Xze_0-164" style="edgeStyle=orthogonalEdgeStyle;rounded=0;orthogonalLoop=1;jettySize=auto;html=1;entryX=0.5;entryY=0;entryDx=0;entryDy=0;" edge="1" parent="1" source="b8eeqvod4poeso2Xze_0-79" target="b8eeqvod4poeso2Xze_0-129">
          <mxGeometry relative="1" as="geometry">
            <Array as="points">
              <mxPoint x="410" y="355" />
              <mxPoint x="410" y="95" />
              <mxPoint x="520" y="95" />
            </Array>
          </mxGeometry>
        </mxCell>
        <mxCell id="b8eeqvod4poeso2Xze_0-79" value="h2 = true" style="rounded=1;whiteSpace=wrap;html=1;" vertex="1" parent="1">
          <mxGeometry x="296" y="335" width="51.5" height="40" as="geometry" />
        </mxCell>
        <mxCell id="b8eeqvod4poeso2Xze_0-165" style="edgeStyle=orthogonalEdgeStyle;rounded=0;orthogonalLoop=1;jettySize=auto;html=1;entryX=0.5;entryY=0;entryDx=0;entryDy=0;" edge="1" parent="1" source="b8eeqvod4poeso2Xze_0-80" target="b8eeqvod4poeso2Xze_0-129">
          <mxGeometry relative="1" as="geometry">
            <Array as="points">
              <mxPoint x="410" y="450" />
              <mxPoint x="410" y="95" />
              <mxPoint x="520" y="95" />
            </Array>
          </mxGeometry>
        </mxCell>
        <mxCell id="b8eeqvod4poeso2Xze_0-80" value="h2 = false" style="rounded=1;whiteSpace=wrap;html=1;" vertex="1" parent="1">
          <mxGeometry x="286" y="428.75" width="61.5" height="42.5" as="geometry" />
        </mxCell>
        <mxCell id="b8eeqvod4poeso2Xze_0-81" value="True" style="text;html=1;align=center;verticalAlign=middle;resizable=0;points=[];autosize=1;strokeColor=none;fillColor=none;" vertex="1" parent="1">
          <mxGeometry x="228.5" y="335" width="50" height="30" as="geometry" />
        </mxCell>
        <mxCell id="b8eeqvod4poeso2Xze_0-82" value="False" style="text;html=1;align=center;verticalAlign=middle;resizable=0;points=[];autosize=1;strokeColor=none;fillColor=none;" vertex="1" parent="1">
          <mxGeometry x="138.5" y="390" width="50" height="30" as="geometry" />
        </mxCell>
        <mxCell id="b8eeqvod4poeso2Xze_0-168" style="edgeStyle=orthogonalEdgeStyle;rounded=0;orthogonalLoop=1;jettySize=auto;html=1;exitX=1;exitY=0.5;exitDx=0;exitDy=0;entryX=0.5;entryY=0;entryDx=0;entryDy=0;" edge="1" parent="1" source="b8eeqvod4poeso2Xze_0-83" target="b8eeqvod4poeso2Xze_0-129">
          <mxGeometry relative="1" as="geometry">
            <Array as="points">
              <mxPoint x="410" y="525" />
              <mxPoint x="410" y="95" />
              <mxPoint x="520" y="95" />
            </Array>
          </mxGeometry>
        </mxCell>
        <mxCell id="b8eeqvod4poeso2Xze_0-83" value="Invalid Choice dice will reroll!" style="rounded=1;whiteSpace=wrap;html=1;" vertex="1" parent="1">
          <mxGeometry x="103.5" y="510" width="170" height="30" as="geometry" />
        </mxCell>
        <mxCell id="b8eeqvod4poeso2Xze_0-84" value="False" style="text;html=1;align=center;verticalAlign=middle;resizable=0;points=[];autosize=1;strokeColor=none;fillColor=none;" vertex="1" parent="1">
          <mxGeometry x="138.5" y="482.5" width="50" height="30" as="geometry" />
        </mxCell>
        <mxCell id="b8eeqvod4poeso2Xze_0-85" value="True" style="text;html=1;align=center;verticalAlign=middle;resizable=0;points=[];autosize=1;strokeColor=none;fillColor=none;" vertex="1" parent="1">
          <mxGeometry x="228.5" y="335" width="50" height="30" as="geometry" />
        </mxCell>
        <mxCell id="b8eeqvod4poeso2Xze_0-86" value="True" style="text;html=1;align=center;verticalAlign=middle;resizable=0;points=[];autosize=1;strokeColor=none;fillColor=none;" vertex="1" parent="1">
          <mxGeometry x="228.5" y="425" width="50" height="30" as="geometry" />
        </mxCell>
        <mxCell id="b8eeqvod4poeso2Xze_0-128" value="" style="edgeStyle=orthogonalEdgeStyle;rounded=0;orthogonalLoop=1;jettySize=auto;html=1;" edge="1" parent="1" source="b8eeqvod4poeso2Xze_0-129" target="b8eeqvod4poeso2Xze_0-132">
          <mxGeometry relative="1" as="geometry" />
        </mxCell>
        <mxCell id="b8eeqvod4poeso2Xze_0-129" value="hold dice 3:&lt;div&gt;d3&lt;/div&gt;&lt;div&gt;chce&lt;/div&gt;" style="shape=parallelogram;perimeter=parallelogramPerimeter;whiteSpace=wrap;html=1;fixedSize=1;" vertex="1" parent="1">
          <mxGeometry x="462.5" y="115" width="115" height="50" as="geometry" />
        </mxCell>
        <mxCell id="b8eeqvod4poeso2Xze_0-130" value="" style="edgeStyle=orthogonalEdgeStyle;rounded=0;orthogonalLoop=1;jettySize=auto;html=1;" edge="1" parent="1" source="b8eeqvod4poeso2Xze_0-132" target="b8eeqvod4poeso2Xze_0-135">
          <mxGeometry relative="1" as="geometry" />
        </mxCell>
        <mxCell id="b8eeqvod4poeso2Xze_0-131" value="" style="edgeStyle=orthogonalEdgeStyle;rounded=0;orthogonalLoop=1;jettySize=auto;html=1;" edge="1" parent="1" source="b8eeqvod4poeso2Xze_0-132" target="b8eeqvod4poeso2Xze_0-137">
          <mxGeometry relative="1" as="geometry" />
        </mxCell>
        <mxCell id="b8eeqvod4poeso2Xze_0-132" value="chce = Y" style="rhombus;whiteSpace=wrap;html=1;" vertex="1" parent="1">
          <mxGeometry x="607.5" y="105" width="80" height="70" as="geometry" />
        </mxCell>
        <mxCell id="b8eeqvod4poeso2Xze_0-133" value="" style="edgeStyle=orthogonalEdgeStyle;rounded=0;orthogonalLoop=1;jettySize=auto;html=1;" edge="1" parent="1" source="b8eeqvod4poeso2Xze_0-135" target="b8eeqvod4poeso2Xze_0-139">
          <mxGeometry relative="1" as="geometry" />
        </mxCell>
        <mxCell id="b8eeqvod4poeso2Xze_0-134" value="" style="edgeStyle=orthogonalEdgeStyle;rounded=0;orthogonalLoop=1;jettySize=auto;html=1;" edge="1" parent="1" source="b8eeqvod4poeso2Xze_0-135" target="b8eeqvod4poeso2Xze_0-143">
          <mxGeometry relative="1" as="geometry" />
        </mxCell>
        <mxCell id="b8eeqvod4poeso2Xze_0-135" value="chce =&amp;nbsp;N" style="rhombus;whiteSpace=wrap;html=1;" vertex="1" parent="1">
          <mxGeometry x="607.5" y="202.5" width="80" height="65" as="geometry" />
        </mxCell>
        <mxCell id="b8eeqvod4poeso2Xze_0-136" style="edgeStyle=orthogonalEdgeStyle;rounded=0;orthogonalLoop=1;jettySize=auto;html=1;entryX=0.5;entryY=0;entryDx=0;entryDy=0;" edge="1" parent="1" source="b8eeqvod4poeso2Xze_0-137" target="b8eeqvod4poeso2Xze_0-149">
          <mxGeometry relative="1" as="geometry">
            <Array as="points">
              <mxPoint x="816.5" y="140" />
              <mxPoint x="816.5" y="335" />
              <mxPoint x="497.5" y="335" />
            </Array>
          </mxGeometry>
        </mxCell>
        <mxCell id="b8eeqvod4poeso2Xze_0-137" value="h3 = true" style="rounded=1;whiteSpace=wrap;html=1;" vertex="1" parent="1">
          <mxGeometry x="747.5" y="125" width="59" height="35" as="geometry" />
        </mxCell>
        <mxCell id="b8eeqvod4poeso2Xze_0-138" style="edgeStyle=orthogonalEdgeStyle;rounded=0;orthogonalLoop=1;jettySize=auto;html=1;exitX=1;exitY=0.5;exitDx=0;exitDy=0;" edge="1" parent="1" source="b8eeqvod4poeso2Xze_0-139">
          <mxGeometry relative="1" as="geometry">
            <mxPoint x="497.5" y="355" as="targetPoint" />
            <Array as="points">
              <mxPoint x="816.5" y="235" />
              <mxPoint x="816.5" y="335" />
              <mxPoint x="498.5" y="335" />
            </Array>
          </mxGeometry>
        </mxCell>
        <mxCell id="b8eeqvod4poeso2Xze_0-139" value="h3 = false" style="rounded=1;whiteSpace=wrap;html=1;arcSize=36;" vertex="1" parent="1">
          <mxGeometry x="747.5" y="218.75" width="59" height="32.5" as="geometry" />
        </mxCell>
        <mxCell id="b8eeqvod4poeso2Xze_0-140" value="True" style="text;html=1;align=center;verticalAlign=middle;resizable=0;points=[];autosize=1;strokeColor=none;fillColor=none;" vertex="1" parent="1">
          <mxGeometry x="687.5" y="120" width="50" height="30" as="geometry" />
        </mxCell>
        <mxCell id="b8eeqvod4poeso2Xze_0-141" value="False" style="text;html=1;align=center;verticalAlign=middle;resizable=0;points=[];autosize=1;strokeColor=none;fillColor=none;" vertex="1" parent="1">
          <mxGeometry x="597.5" y="175" width="50" height="30" as="geometry" />
        </mxCell>
        <mxCell id="b8eeqvod4poeso2Xze_0-142" style="edgeStyle=orthogonalEdgeStyle;rounded=0;orthogonalLoop=1;jettySize=auto;html=1;exitX=0.5;exitY=1;exitDx=0;exitDy=0;entryX=0.5;entryY=0;entryDx=0;entryDy=0;" edge="1" parent="1" source="b8eeqvod4poeso2Xze_0-143" target="b8eeqvod4poeso2Xze_0-149">
          <mxGeometry relative="1" as="geometry">
            <Array as="points">
              <mxPoint x="647.5" y="335" />
              <mxPoint x="497.5" y="335" />
            </Array>
          </mxGeometry>
        </mxCell>
        <mxCell id="b8eeqvod4poeso2Xze_0-143" value="Invalid Choice dice will reroll!" style="rounded=1;whiteSpace=wrap;html=1;" vertex="1" parent="1">
          <mxGeometry x="562.5" y="295" width="170" height="30" as="geometry" />
        </mxCell>
        <mxCell id="b8eeqvod4poeso2Xze_0-144" value="False" style="text;html=1;align=center;verticalAlign=middle;resizable=0;points=[];autosize=1;strokeColor=none;fillColor=none;" vertex="1" parent="1">
          <mxGeometry x="597.5" y="267.5" width="50" height="30" as="geometry" />
        </mxCell>
        <mxCell id="b8eeqvod4poeso2Xze_0-145" value="True" style="text;html=1;align=center;verticalAlign=middle;resizable=0;points=[];autosize=1;strokeColor=none;fillColor=none;" vertex="1" parent="1">
          <mxGeometry x="687.5" y="120" width="50" height="30" as="geometry" />
        </mxCell>
        <mxCell id="b8eeqvod4poeso2Xze_0-146" value="True" style="text;html=1;align=center;verticalAlign=middle;resizable=0;points=[];autosize=1;strokeColor=none;fillColor=none;" vertex="1" parent="1">
          <mxGeometry x="687.5" y="210" width="50" height="30" as="geometry" />
        </mxCell>
        <mxCell id="b8eeqvod4poeso2Xze_0-147" value="&lt;span style=&quot;color: rgba(0, 0, 0, 0); font-family: monospace; font-size: 0px; text-align: start;&quot;&gt;%3CmxGraphModel%3E%3Croot%3E%3CmxCell%20id%3D%220%22%2F%3E%3CmxCell%20id%3D%221%22%20parent%3D%220%22%2F%3E%3CmxCell%20id%3D%222%22%20value%3D%22%22%20style%3D%22edgeStyle%3DorthogonalEdgeStyle%3Brounded%3D0%3BorthogonalLoop%3D1%3BjettySize%3Dauto%3Bhtml%3D1%3B%22%20edge%3D%221%22%20source%3D%223%22%20target%3D%226%22%20parent%3D%221%22%3E%3CmxGeometry%20relative%3D%221%22%20as%3D%22geometry%22%2F%3E%3C%2FmxCell%3E%3CmxCell%20id%3D%223%22%20value%3D%22hold%20dice%201%3A%26lt%3Bdiv%26gt%3Bd1%26lt%3B%2Fdiv%26gt%3B%26lt%3Bdiv%26gt%3Bchce%26lt%3B%2Fdiv%26gt%3B%22%20style%3D%22shape%3Dparallelogram%3Bperimeter%3DparallelogramPerimeter%3BwhiteSpace%3Dwrap%3Bhtml%3D1%3BfixedSize%3D1%3B%22%20vertex%3D%221%22%20parent%3D%221%22%3E%3CmxGeometry%20x%3D%2265%22%20y%3D%2290%22%20width%3D%22115%22%20height%3D%2250%22%20as%3D%22geometry%22%2F%3E%3C%2FmxCell%3E%3CmxCell%20id%3D%224%22%20value%3D%22%22%20style%3D%22edgeStyle%3DorthogonalEdgeStyle%3Brounded%3D0%3BorthogonalLoop%3D1%3BjettySize%3Dauto%3Bhtml%3D1%3B%22%20edge%3D%221%22%20source%3D%226%22%20target%3D%229%22%20parent%3D%221%22%3E%3CmxGeometry%20relative%3D%221%22%20as%3D%22geometry%22%2F%3E%3C%2FmxCell%3E%3CmxCell%20id%3D%225%22%20value%3D%22%22%20style%3D%22edgeStyle%3DorthogonalEdgeStyle%3Brounded%3D0%3BorthogonalLoop%3D1%3BjettySize%3Dauto%3Bhtml%3D1%3B%22%20edge%3D%221%22%20source%3D%226%22%20target%3D%2210%22%20parent%3D%221%22%3E%3CmxGeometry%20relative%3D%221%22%20as%3D%22geometry%22%2F%3E%3C%2FmxCell%3E%3CmxCell%20id%3D%226%22%20value%3D%22chce%20%3D%20Y%22%20style%3D%22rhombus%3BwhiteSpace%3Dwrap%3Bhtml%3D1%3B%22%20vertex%3D%221%22%20parent%3D%221%22%3E%3CmxGeometry%20x%3D%22210%22%20y%3D%2280%22%20width%3D%2280%22%20height%3D%2270%22%20as%3D%22geometry%22%2F%3E%3C%2FmxCell%3E%3CmxCell%20id%3D%227%22%20value%3D%22%22%20style%3D%22edgeStyle%3DorthogonalEdgeStyle%3Brounded%3D0%3BorthogonalLoop%3D1%3BjettySize%3Dauto%3Bhtml%3D1%3B%22%20edge%3D%221%22%20source%3D%229%22%20target%3D%2211%22%20parent%3D%221%22%3E%3CmxGeometry%20relative%3D%221%22%20as%3D%22geometry%22%2F%3E%3C%2FmxCell%3E%3CmxCell%20id%3D%228%22%20value%3D%22%22%20style%3D%22edgeStyle%3DorthogonalEdgeStyle%3Brounded%3D0%3BorthogonalLoop%3D1%3BjettySize%3Dauto%3Bhtml%3D1%3B%22%20edge%3D%221%22%20source%3D%229%22%20target%3D%2214%22%20parent%3D%221%22%3E%3CmxGeometry%20relative%3D%221%22%20as%3D%22geometry%22%2F%3E%3C%2FmxCell%3E%3CmxCell%20id%3D%229%22%20value%3D%22chce%20%3D%26amp%3Bnbsp%3BN%22%20style%3D%22rhombus%3BwhiteSpace%3Dwrap%3Bhtml%3D1%3B%22%20vertex%3D%221%22%20parent%3D%221%22%3E%3CmxGeometry%20x%3D%22210%22%20y%3D%22177.5%22%20width%3D%2280%22%20height%3D%2265%22%20as%3D%22geometry%22%2F%3E%3C%2FmxCell%3E%3CmxCell%20id%3D%2210%22%20value%3D%22h1%20%3D%20true%22%20style%3D%22rounded%3D1%3BwhiteSpace%3Dwrap%3Bhtml%3D1%3B%22%20vertex%3D%221%22%20parent%3D%221%22%3E%3CmxGeometry%20x%3D%22350%22%20y%3D%2290%22%20width%3D%2280%22%20height%3D%2250%22%20as%3D%22geometry%22%2F%3E%3C%2FmxCell%3E%3CmxCell%20id%3D%2211%22%20value%3D%22h1%20%3D%20false%22%20style%3D%22rounded%3D1%3BwhiteSpace%3Dwrap%3Bhtml%3D1%3B%22%20vertex%3D%221%22%20parent%3D%221%22%3E%3CmxGeometry%20x%3D%22350%22%20y%3D%22185%22%20width%3D%2280%22%20height%3D%2250%22%20as%3D%22geometry%22%2F%3E%3C%2FmxCell%3E%3CmxCell%20id%3D%2212%22%20value%3D%22True%22%20style%3D%22text%3Bhtml%3D1%3Balign%3Dcenter%3BverticalAlign%3Dmiddle%3Bresizable%3D0%3Bpoints%3D%5B%5D%3Bautosize%3D1%3BstrokeColor%3Dnone%3BfillColor%3Dnone%3B%22%20vertex%3D%221%22%20parent%3D%221%22%3E%3CmxGeometry%20x%3D%22290%22%20y%3D%2295%22%20width%3D%2250%22%20height%3D%2230%22%20as%3D%22geometry%22%2F%3E%3C%2FmxCell%3E%3CmxCell%20id%3D%2213%22%20value%3D%22False%22%20style%3D%22text%3Bhtml%3D1%3Balign%3Dcenter%3BverticalAlign%3Dmiddle%3Bresizable%3D0%3Bpoints%3D%5B%5D%3Bautosize%3D1%3BstrokeColor%3Dnone%3BfillColor%3Dnone%3B%22%20vertex%3D%221%22%20parent%3D%221%22%3E%3CmxGeometry%20x%3D%22200%22%20y%3D%22150%22%20width%3D%2250%22%20height%3D%2230%22%20as%3D%22geometry%22%2F%3E%3C%2FmxCell%3E%3CmxCell%20id%3D%2214%22%20value%3D%22Invalid%20Choice%20dice%20will%20reroll!%22%20style%3D%22rounded%3D1%3BwhiteSpace%3Dwrap%3Bhtml%3D1%3B%22%20vertex%3D%221%22%20parent%3D%221%22%3E%3CmxGeometry%20x%3D%22165%22%20y%3D%22270%22%20width%3D%22170%22%20height%3D%2230%22%20as%3D%22geometry%22%2F%3E%3C%2FmxCell%3E%3CmxCell%20id%3D%2215%22%20value%3D%22False%22%20style%3D%22text%3Bhtml%3D1%3Balign%3Dcenter%3BverticalAlign%3Dmiddle%3Bresizable%3D0%3Bpoints%3D%5B%5D%3Bautosize%3D1%3BstrokeColor%3Dnone%3BfillColor%3Dnone%3B%22%20vertex%3D%221%22%20parent%3D%221%22%3E%3CmxGeometry%20x%3D%22200%22%20y%3D%22242.5%22%20width%3D%2250%22%20height%3D%2230%22%20as%3D%22geometry%22%2F%3E%3C%2FmxCell%3E%3CmxCell%20id%3D%2216%22%20value%3D%22True%22%20style%3D%22text%3Bhtml%3D1%3Balign%3Dcenter%3BverticalAlign%3Dmiddle%3Bresizable%3D0%3Bpoints%3D%5B%5D%3Bautosize%3D1%3BstrokeColor%3Dnone%3BfillColor%3Dnone%3B%22%20vertex%3D%221%22%20parent%3D%221%22%3E%3CmxGeometry%20x%3D%22290%22%20y%3D%2295%22%20width%3D%2250%22%20height%3D%2230%22%20as%3D%22geometry%22%2F%3E%3C%2FmxCell%3E%3CmxCell%20id%3D%2217%22%20value%3D%22True%22%20style%3D%22text%3Bhtml%3D1%3Balign%3Dcenter%3BverticalAlign%3Dmiddle%3Bresizable%3D0%3Bpoints%3D%5B%5D%3Bautosize%3D1%3BstrokeColor%3Dnone%3BfillColor%3Dnone%3B%22%20vertex%3D%221%22%20parent%3D%221%22%3E%3CmxGeometry%20x%3D%22290%22%20y%3D%22185%22%20width%3D%2250%22%20height%3D%2230%22%20as%3D%22geometry%22%2F%3E%3C%2FmxCell%3E%3C%2Froot%3E%3C%2FmxGraphModel%3E&lt;/span&gt;&lt;span style=&quot;color: rgba(0, 0, 0, 0); font-family: monospace; font-size: 0px; text-align: start;&quot;&gt;%3CmxGraphModel%3E%3Croot%3E%3CmxCell%20id%3D%220%22%2F%3E%3CmxCell%20id%3D%221%22%20parent%3D%220%22%2F%3E%3CmxCell%20id%3D%222%22%20value%3D%22%22%20style%3D%22edgeStyle%3DorthogonalEdgeStyle%3Brounded%3D0%3BorthogonalLoop%3D1%3BjettySize%3Dauto%3Bhtml%3D1%3B%22%20edge%3D%221%22%20source%3D%223%22%20target%3D%226%22%20parent%3D%221%22%3E%3CmxGeometry%20relative%3D%221%22%20as%3D%22geometry%22%2F%3E%3C%2FmxCell%3E%3CmxCell%20id%3D%223%22%20value%3D%22hold%20dice%201%3A%26lt%3Bdiv%26gt%3Bd1%26lt%3B%2Fdiv%26gt%3B%26lt%3Bdiv%26gt%3Bchce%26lt%3B%2Fdiv%26gt%3B%22%20style%3D%22shape%3Dparallelogram%3Bperimeter%3DparallelogramPerimeter%3BwhiteSpace%3Dwrap%3Bhtml%3D1%3BfixedSize%3D1%3B%22%20vertex%3D%221%22%20parent%3D%221%22%3E%3CmxGeometry%20x%3D%2265%22%20y%3D%2290%22%20width%3D%22115%22%20height%3D%2250%22%20as%3D%22geometry%22%2F%3E%3C%2FmxCell%3E%3CmxCell%20id%3D%224%22%20value%3D%22%22%20style%3D%22edgeStyle%3DorthogonalEdgeStyle%3Brounded%3D0%3BorthogonalLoop%3D1%3BjettySize%3Dauto%3Bhtml%3D1%3B%22%20edge%3D%221%22%20source%3D%226%22%20target%3D%229%22%20parent%3D%221%22%3E%3CmxGeometry%20relative%3D%221%22%20as%3D%22geometry%22%2F%3E%3C%2FmxCell%3E%3CmxCell%20id%3D%225%22%20value%3D%22%22%20style%3D%22edgeStyle%3DorthogonalEdgeStyle%3Brounded%3D0%3BorthogonalLoop%3D1%3BjettySize%3Dauto%3Bhtml%3D1%3B%22%20edge%3D%221%22%20source%3D%226%22%20target%3D%2210%22%20parent%3D%221%22%3E%3CmxGeometry%20relative%3D%221%22%20as%3D%22geometry%22%2F%3E%3C%2FmxCell%3E%3CmxCell%20id%3D%226%22%20value%3D%22chce%20%3D%20Y%22%20style%3D%22rhombus%3BwhiteSpace%3Dwrap%3Bhtml%3D1%3B%22%20vertex%3D%221%22%20parent%3D%221%22%3E%3CmxGeometry%20x%3D%22210%22%20y%3D%2280%22%20width%3D%2280%22%20height%3D%2270%22%20as%3D%22geometry%22%2F%3E%3C%2FmxCell%3E%3CmxCell%20id%3D%227%22%20value%3D%22%22%20style%3D%22edgeStyle%3DorthogonalEdgeStyle%3Brounded%3D0%3BorthogonalLoop%3D1%3BjettySize%3Dauto%3Bhtml%3D1%3B%22%20edge%3D%221%22%20source%3D%229%22%20target%3D%2211%22%20parent%3D%221%22%3E%3CmxGeometry%20relative%3D%221%22%20as%3D%22geometry%22%2F%3E%3C%2FmxCell%3E%3CmxCell%20id%3D%228%22%20value%3D%22%22%20style%3D%22edgeStyle%3DorthogonalEdgeStyle%3Brounded%3D0%3BorthogonalLoop%3D1%3BjettySize%3Dauto%3Bhtml%3D1%3B%22%20edge%3D%221%22%20source%3D%229%22%20target%3D%2214%22%20parent%3D%221%22%3E%3CmxGeometry%20relative%3D%221%22%20as%3D%22geometry%22%2F%3E%3C%2FmxCell%3E%3CmxCell%20id%3D%229%22%20value%3D%22chce%20%3D%26amp%3Bnbsp%3BN%22%20style%3D%22rhombus%3BwhiteSpace%3Dwrap%3Bhtml%3D1%3B%22%20vertex%3D%221%22%20parent%3D%221%22%3E%3CmxGeometry%20x%3D%22210%22%20y%3D%22177.5%22%20width%3D%2280%22%20height%3D%2265%22%20as%3D%22geometry%22%2F%3E%3C%2FmxCell%3E%3CmxCell%20id%3D%2210%22%20value%3D%22h1%20%3D%20true%22%20style%3D%22rounded%3D1%3BwhiteSpace%3Dwrap%3Bhtml%3D1%3B%22%20vertex%3D%221%22%20parent%3D%221%22%3E%3CmxGeometry%20x%3D%22350%22%20y%3D%2290%22%20width%3D%2280%22%20height%3D%2250%22%20as%3D%22geometry%22%2F%3E%3C%2FmxCell%3E%3CmxCell%20id%3D%2211%22%20value%3D%22h1%20%3D%20false%22%20style%3D%22rounded%3D1%3BwhiteSpace%3Dwrap%3Bhtml%3D1%3B%22%20vertex%3D%221%22%20parent%3D%221%22%3E%3CmxGeometry%20x%3D%22350%22%20y%3D%22185%22%20width%3D%2280%22%20height%3D%2250%22%20as%3D%22geometry%22%2F%3E%3C%2FmxCell%3E%3CmxCell%20id%3D%2212%22%20value%3D%22True%22%20style%3D%22text%3Bhtml%3D1%3Balign%3Dcenter%3BverticalAlign%3Dmiddle%3Bresizable%3D0%3Bpoints%3D%5B%5D%3Bautosize%3D1%3BstrokeColor%3Dnone%3BfillColor%3Dnone%3B%22%20vertex%3D%221%22%20parent%3D%221%22%3E%3CmxGeometry%20x%3D%22290%22%20y%3D%2295%22%20width%3D%2250%22%20height%3D%2230%22%20as%3D%22geometry%22%2F%3E%3C%2FmxCell%3E%3CmxCell%20id%3D%2213%22%20value%3D%22False%22%20style%3D%22text%3Bhtml%3D1%3Balign%3Dcenter%3BverticalAlign%3Dmiddle%3Bresizable%3D0%3Bpoints%3D%5B%5D%3Bautosize%3D1%3BstrokeColor%3Dnone%3BfillColor%3Dnone%3B%22%20vertex%3D%221%22%20parent%3D%221%22%3E%3CmxGeometry%20x%3D%22200%22%20y%3D%22150%22%20width%3D%2250%22%20height%3D%2230%22%20as%3D%22geometry%22%2F%3E%3C%2FmxCell%3E%3CmxCell%20id%3D%2214%22%20value%3D%22Invalid%20Choice%20dice%20will%20reroll!%22%20style%3D%22rounded%3D1%3BwhiteSpace%3Dwrap%3Bhtml%3D1%3B%22%20vertex%3D%221%22%20parent%3D%221%22%3E%3CmxGeometry%20x%3D%22165%22%20y%3D%22270%22%20width%3D%22170%22%20height%3D%2230%22%20as%3D%22geometry%22%2F%3E%3C%2FmxCell%3E%3CmxCell%20id%3D%2215%22%20value%3D%22False%22%20style%3D%22text%3Bhtml%3D1%3Balign%3Dcenter%3BverticalAlign%3Dmiddle%3Bresizable%3D0%3Bpoints%3D%5B%5D%3Bautosize%3D1%3BstrokeColor%3Dnone%3BfillColor%3Dnone%3B%22%20vertex%3D%221%22%20parent%3D%221%22%3E%3CmxGeometry%20x%3D%22200%22%20y%3D%22242.5%22%20width%3D%2250%22%20height%3D%2230%22%20as%3D%22geometry%22%2F%3E%3C%2FmxCell%3E%3CmxCell%20id%3D%2216%22%20value%3D%22True%22%20style%3D%22text%3Bhtml%3D1%3Balign%3Dcenter%3BverticalAlign%3Dmiddle%3Bresizable%3D0%3Bpoints%3D%5B%5D%3Bautosize%3D1%3BstrokeColor%3Dnone%3BfillColor%3Dnone%3B%22%20vertex%3D%221%22%20parent%3D%221%22%3E%3CmxGeometry%20x%3D%22290%22%20y%3D%2295%22%20width%3D%2250%22%20height%3D%2230%22%20as%3D%22geometry%22%2F%3E%3C%2FmxCell%3E%3CmxCell%20id%3D%2217%22%20value%3D%22True%22%20style%3D%22text%3Bhtml%3D1%3Balign%3Dcenter%3BverticalAlign%3Dmiddle%3Bresizable%3D0%3Bpoints%3D%5B%5D%3Bautosize%3D1%3BstrokeColor%3Dnone%3BfillColor%3Dnone%3B%22%20vertex%3D%221%22%20parent%3D%221%22%3E%3CmxGeometry%20x%3D%22290%22%20y%3D%22185%22%20width%3D%2250%22%20height%3D%2230%22%20as%3D%22geometry%22%2F%3E%3C%2FmxCell%3E%3C%2Froot%3E%3C%2FmxGraphModel%3E&lt;/span&gt;&lt;span style=&quot;color: rgba(0, 0, 0, 0); font-family: monospace; font-size: 0px; text-align: start;&quot;&gt;%3CmxGraphModel%3E%3Croot%3E%3CmxCell%20id%3D%220%22%2F%3E%3CmxCell%20id%3D%221%22%20parent%3D%220%22%2F%3E%3CmxCell%20id%3D%222%22%20value%3D%22%22%20style%3D%22edgeStyle%3DorthogonalEdgeStyle%3Brounded%3D0%3BorthogonalLoop%3D1%3BjettySize%3Dauto%3Bhtml%3D1%3B%22%20edge%3D%221%22%20source%3D%223%22%20target%3D%226%22%20parent%3D%221%22%3E%3CmxGeometry%20relative%3D%221%22%20as%3D%22geometry%22%2F%3E%3C%2FmxCell%3E%3CmxCell%20id%3D%223%22%20value%3D%22hold%20dice%201%3A%26lt%3Bdiv%26gt%3Bd1%26lt%3B%2Fdiv%26gt%3B%26lt%3Bdiv%26gt%3Bchce%26lt%3B%2Fdiv%26gt%3B%22%20style%3D%22shape%3Dparallelogram%3Bperimeter%3DparallelogramPerimeter%3BwhiteSpace%3Dwrap%3Bhtml%3D1%3BfixedSize%3D1%3B%22%20vertex%3D%221%22%20parent%3D%221%22%3E%3CmxGeometry%20x%3D%2265%22%20y%3D%2290%22%20width%3D%22115%22%20height%3D%2250%22%20as%3D%22geometry%22%2F%3E%3C%2FmxCell%3E%3CmxCell%20id%3D%224%22%20value%3D%22%22%20style%3D%22edgeStyle%3DorthogonalEdgeStyle%3Brounded%3D0%3BorthogonalLoop%3D1%3BjettySize%3Dauto%3Bhtml%3D1%3B%22%20edge%3D%221%22%20source%3D%226%22%20target%3D%229%22%20parent%3D%221%22%3E%3CmxGeometry%20relative%3D%221%22%20as%3D%22geometry%22%2F%3E%3C%2FmxCell%3E%3CmxCell%20id%3D%225%22%20value%3D%22%22%20style%3D%22edgeStyle%3DorthogonalEdgeStyle%3Brounded%3D0%3BorthogonalLoop%3D1%3BjettySize%3Dauto%3Bhtml%3D1%3B%22%20edge%3D%221%22%20source%3D%226%22%20target%3D%2210%22%20parent%3D%221%22%3E%3CmxGeometry%20relative%3D%221%22%20as%3D%22geometry%22%2F%3E%3C%2FmxCell%3E%3CmxCell%20id%3D%226%22%20value%3D%22chce%20%3D%20Y%22%20style%3D%22rhombus%3BwhiteSpace%3Dwrap%3Bhtml%3D1%3B%22%20vertex%3D%221%22%20parent%3D%221%22%3E%3CmxGeometry%20x%3D%22210%22%20y%3D%2280%22%20width%3D%2280%22%20height%3D%2270%22%20as%3D%22geometry%22%2F%3E%3C%2FmxCell%3E%3CmxCell%20id%3D%227%22%20value%3D%22%22%20style%3D%22edgeStyle%3DorthogonalEdgeStyle%3Brounded%3D0%3BorthogonalLoop%3D1%3BjettySize%3Dauto%3Bhtml%3D1%3B%22%20edge%3D%221%22%20source%3D%229%22%20target%3D%2211%22%20parent%3D%221%22%3E%3CmxGeometry%20relative%3D%221%22%20as%3D%22geometry%22%2F%3E%3C%2FmxCell%3E%3CmxCell%20id%3D%228%22%20value%3D%22%22%20style%3D%22edgeStyle%3DorthogonalEdgeStyle%3Brounded%3D0%3BorthogonalLoop%3D1%3BjettySize%3Dauto%3Bhtml%3D1%3B%22%20edge%3D%221%22%20source%3D%229%22%20target%3D%2214%22%20parent%3D%221%22%3E%3CmxGeometry%20relative%3D%221%22%20as%3D%22geometry%22%2F%3E%3C%2FmxCell%3E%3CmxCell%20id%3D%229%22%20value%3D%22chce%20%3D%26amp%3Bnbsp%3BN%22%20style%3D%22rhombus%3BwhiteSpace%3Dwrap%3Bhtml%3D1%3B%22%20vertex%3D%221%22%20parent%3D%221%22%3E%3CmxGeometry%20x%3D%22210%22%20y%3D%22177.5%22%20width%3D%2280%22%20height%3D%2265%22%20as%3D%22geometry%22%2F%3E%3C%2FmxCell%3E%3CmxCell%20id%3D%2210%22%20value%3D%22h1%20%3D%20true%22%20style%3D%22rounded%3D1%3BwhiteSpace%3Dwrap%3Bhtml%3D1%3B%22%20vertex%3D%221%22%20parent%3D%221%22%3E%3CmxGeometry%20x%3D%22350%22%20y%3D%2290%22%20width%3D%2280%22%20height%3D%2250%22%20as%3D%22geometry%22%2F%3E%3C%2FmxCell%3E%3CmxCell%20id%3D%2211%22%20value%3D%22h1%20%3D%20false%22%20style%3D%22rounded%3D1%3BwhiteSpace%3Dwrap%3Bhtml%3D1%3B%22%20vertex%3D%221%22%20parent%3D%221%22%3E%3CmxGeometry%20x%3D%22350%22%20y%3D%22185%22%20width%3D%2280%22%20height%3D%2250%22%20as%3D%22geometry%22%2F%3E%3C%2FmxCell%3E%3CmxCell%20id%3D%2212%22%20value%3D%22True%22%20style%3D%22text%3Bhtml%3D1%3Balign%3Dcenter%3BverticalAlign%3Dmiddle%3Bresizable%3D0%3Bpoints%3D%5B%5D%3Bautosize%3D1%3BstrokeColor%3Dnone%3BfillColor%3Dnone%3B%22%20vertex%3D%221%22%20parent%3D%221%22%3E%3CmxGeometry%20x%3D%22290%22%20y%3D%2295%22%20width%3D%2250%22%20height%3D%2230%22%20as%3D%22geometry%22%2F%3E%3C%2FmxCell%3E%3CmxCell%20id%3D%2213%22%20value%3D%22False%22%20style%3D%22text%3Bhtml%3D1%3Balign%3Dcenter%3BverticalAlign%3Dmiddle%3Bresizable%3D0%3Bpoints%3D%5B%5D%3Bautosize%3D1%3BstrokeColor%3Dnone%3BfillColor%3Dnone%3B%22%20vertex%3D%221%22%20parent%3D%221%22%3E%3CmxGeometry%20x%3D%22200%22%20y%3D%22150%22%20width%3D%2250%22%20height%3D%2230%22%20as%3D%22geometry%22%2F%3E%3C%2FmxCell%3E%3CmxCell%20id%3D%2214%22%20value%3D%22Invalid%20Choice%20dice%20will%20reroll!%22%20style%3D%22rounded%3D1%3BwhiteSpace%3Dwrap%3Bhtml%3D1%3B%22%20vertex%3D%221%22%20parent%3D%221%22%3E%3CmxGeometry%20x%3D%22165%22%20y%3D%22270%22%20width%3D%22170%22%20height%3D%2230%22%20as%3D%22geometry%22%2F%3E%3C%2FmxCell%3E%3CmxCell%20id%3D%2215%22%20value%3D%22False%22%20style%3D%22text%3Bhtml%3D1%3Balign%3Dcenter%3BverticalAlign%3Dmiddle%3Bresizable%3D0%3Bpoints%3D%5B%5D%3Bautosize%3D1%3BstrokeColor%3Dnone%3BfillColor%3Dnone%3B%22%20vertex%3D%221%22%20parent%3D%221%22%3E%3CmxGeometry%20x%3D%22200%22%20y%3D%22242.5%22%20width%3D%2250%22%20height%3D%2230%22%20as%3D%22geometry%22%2F%3E%3C%2FmxCell%3E%3CmxCell%20id%3D%2216%22%20value%3D%22True%22%20style%3D%22text%3Bhtml%3D1%3Balign%3Dcenter%3BverticalAlign%3Dmiddle%3Bresizable%3D0%3Bpoints%3D%5B%5D%3Bautosize%3D1%3BstrokeColor%3Dnone%3BfillColor%3Dnone%3B%22%20vertex%3D%221%22%20parent%3D%221%22%3E%3CmxGeometry%20x%3D%22290%22%20y%3D%2295%22%20width%3D%2250%22%20height%3D%2230%22%20as%3D%22geometry%22%2F%3E%3C%2FmxCell%3E%3CmxCell%20id%3D%2217%22%20value%3D%22True%22%20style%3D%22text%3Bhtml%3D1%3Balign%3Dcenter%3BverticalAlign%3Dmiddle%3Bresizable%3D0%3Bpoints%3D%5B%5D%3Bautosize%3D1%3BstrokeColor%3Dnone%3BfillColor%3Dnone%3B%22%20vertex%3D%221%22%20parent%3D%221%22%3E%3CmxGeometry%20x%3D%22290%22%20y%3D%22185%22%20width%3D%2250%22%20height%3D%2230%22%20as%3D%22geometry%22%2F%3E%3C%2FmxCell%3E%3C%2Froot%3E%3C%2FmxGraphModel%3E&lt;/span&gt;" style="text;html=1;align=center;verticalAlign=middle;resizable=0;points=[];autosize=1;strokeColor=none;fillColor=none;" vertex="1" parent="1">
          <mxGeometry x="557.5" y="373" width="20" height="30" as="geometry" />
        </mxCell>
        <mxCell id="b8eeqvod4poeso2Xze_0-148" value="" style="edgeStyle=orthogonalEdgeStyle;rounded=0;orthogonalLoop=1;jettySize=auto;html=1;" edge="1" parent="1" source="b8eeqvod4poeso2Xze_0-149" target="b8eeqvod4poeso2Xze_0-152">
          <mxGeometry relative="1" as="geometry" />
        </mxCell>
        <mxCell id="b8eeqvod4poeso2Xze_0-149" value="hold dice 4:&lt;div&gt;d4&lt;/div&gt;&lt;div&gt;chce&lt;/div&gt;" style="shape=parallelogram;perimeter=parallelogramPerimeter;whiteSpace=wrap;html=1;fixedSize=1;" vertex="1" parent="1">
          <mxGeometry x="440" y="355" width="115" height="50" as="geometry" />
        </mxCell>
        <mxCell id="b8eeqvod4poeso2Xze_0-150" value="" style="edgeStyle=orthogonalEdgeStyle;rounded=0;orthogonalLoop=1;jettySize=auto;html=1;" edge="1" parent="1" source="b8eeqvod4poeso2Xze_0-152" target="b8eeqvod4poeso2Xze_0-155">
          <mxGeometry relative="1" as="geometry" />
        </mxCell>
        <mxCell id="b8eeqvod4poeso2Xze_0-151" value="" style="edgeStyle=orthogonalEdgeStyle;rounded=0;orthogonalLoop=1;jettySize=auto;html=1;" edge="1" parent="1" source="b8eeqvod4poeso2Xze_0-152" target="b8eeqvod4poeso2Xze_0-156">
          <mxGeometry relative="1" as="geometry" />
        </mxCell>
        <mxCell id="b8eeqvod4poeso2Xze_0-152" value="chce = Y" style="rhombus;whiteSpace=wrap;html=1;" vertex="1" parent="1">
          <mxGeometry x="585" y="345" width="80" height="70" as="geometry" />
        </mxCell>
        <mxCell id="b8eeqvod4poeso2Xze_0-153" value="" style="edgeStyle=orthogonalEdgeStyle;rounded=0;orthogonalLoop=1;jettySize=auto;html=1;" edge="1" parent="1" source="b8eeqvod4poeso2Xze_0-155" target="b8eeqvod4poeso2Xze_0-157">
          <mxGeometry relative="1" as="geometry" />
        </mxCell>
        <mxCell id="b8eeqvod4poeso2Xze_0-154" value="" style="edgeStyle=orthogonalEdgeStyle;rounded=0;orthogonalLoop=1;jettySize=auto;html=1;" edge="1" parent="1" source="b8eeqvod4poeso2Xze_0-155" target="b8eeqvod4poeso2Xze_0-160">
          <mxGeometry relative="1" as="geometry" />
        </mxCell>
        <mxCell id="b8eeqvod4poeso2Xze_0-155" value="chce =&amp;nbsp;N" style="rhombus;whiteSpace=wrap;html=1;" vertex="1" parent="1">
          <mxGeometry x="585" y="442.5" width="80" height="65" as="geometry" />
        </mxCell>
        <mxCell id="b8eeqvod4poeso2Xze_0-170" style="edgeStyle=orthogonalEdgeStyle;rounded=0;orthogonalLoop=1;jettySize=auto;html=1;exitX=1;exitY=0.5;exitDx=0;exitDy=0;" edge="1" parent="1" source="b8eeqvod4poeso2Xze_0-156" target="b8eeqvod4poeso2Xze_0-169">
          <mxGeometry relative="1" as="geometry">
            <Array as="points">
              <mxPoint x="804" y="380" />
              <mxPoint x="804" y="600" />
              <mxPoint x="137" y="600" />
            </Array>
          </mxGeometry>
        </mxCell>
        <mxCell id="b8eeqvod4poeso2Xze_0-156" value="h4 = true" style="rounded=1;whiteSpace=wrap;html=1;" vertex="1" parent="1">
          <mxGeometry x="732.5" y="360" width="51.5" height="40" as="geometry" />
        </mxCell>
        <mxCell id="b8eeqvod4poeso2Xze_0-172" style="edgeStyle=orthogonalEdgeStyle;rounded=0;orthogonalLoop=1;jettySize=auto;html=1;exitX=1;exitY=0.5;exitDx=0;exitDy=0;" edge="1" parent="1" source="b8eeqvod4poeso2Xze_0-157" target="b8eeqvod4poeso2Xze_0-169">
          <mxGeometry relative="1" as="geometry">
            <Array as="points">
              <mxPoint x="804" y="475" />
              <mxPoint x="804" y="600" />
              <mxPoint x="137" y="600" />
            </Array>
          </mxGeometry>
        </mxCell>
        <mxCell id="b8eeqvod4poeso2Xze_0-157" value="h4 = false" style="rounded=1;whiteSpace=wrap;html=1;" vertex="1" parent="1">
          <mxGeometry x="722.5" y="453.75" width="61.5" height="42.5" as="geometry" />
        </mxCell>
        <mxCell id="b8eeqvod4poeso2Xze_0-158" value="True" style="text;html=1;align=center;verticalAlign=middle;resizable=0;points=[];autosize=1;strokeColor=none;fillColor=none;" vertex="1" parent="1">
          <mxGeometry x="665" y="360" width="50" height="30" as="geometry" />
        </mxCell>
        <mxCell id="b8eeqvod4poeso2Xze_0-159" value="False" style="text;html=1;align=center;verticalAlign=middle;resizable=0;points=[];autosize=1;strokeColor=none;fillColor=none;" vertex="1" parent="1">
          <mxGeometry x="575" y="415" width="50" height="30" as="geometry" />
        </mxCell>
        <mxCell id="b8eeqvod4poeso2Xze_0-171" style="edgeStyle=orthogonalEdgeStyle;rounded=0;orthogonalLoop=1;jettySize=auto;html=1;exitX=0.5;exitY=1;exitDx=0;exitDy=0;entryX=0.5;entryY=0;entryDx=0;entryDy=0;" edge="1" parent="1" source="b8eeqvod4poeso2Xze_0-160" target="b8eeqvod4poeso2Xze_0-169">
          <mxGeometry relative="1" as="geometry">
            <Array as="points">
              <mxPoint x="625" y="600" />
              <mxPoint x="137" y="600" />
            </Array>
          </mxGeometry>
        </mxCell>
        <mxCell id="b8eeqvod4poeso2Xze_0-160" value="Invalid Choice dice will reroll!" style="rounded=1;whiteSpace=wrap;html=1;" vertex="1" parent="1">
          <mxGeometry x="540" y="535" width="170" height="30" as="geometry" />
        </mxCell>
        <mxCell id="b8eeqvod4poeso2Xze_0-161" value="False" style="text;html=1;align=center;verticalAlign=middle;resizable=0;points=[];autosize=1;strokeColor=none;fillColor=none;" vertex="1" parent="1">
          <mxGeometry x="575" y="507.5" width="50" height="30" as="geometry" />
        </mxCell>
        <mxCell id="b8eeqvod4poeso2Xze_0-162" value="True" style="text;html=1;align=center;verticalAlign=middle;resizable=0;points=[];autosize=1;strokeColor=none;fillColor=none;" vertex="1" parent="1">
          <mxGeometry x="665" y="360" width="50" height="30" as="geometry" />
        </mxCell>
        <mxCell id="b8eeqvod4poeso2Xze_0-163" value="True" style="text;html=1;align=center;verticalAlign=middle;resizable=0;points=[];autosize=1;strokeColor=none;fillColor=none;" vertex="1" parent="1">
          <mxGeometry x="665" y="450" width="50" height="30" as="geometry" />
        </mxCell>
        <mxCell id="b8eeqvod4poeso2Xze_0-174" value="" style="edgeStyle=orthogonalEdgeStyle;rounded=0;orthogonalLoop=1;jettySize=auto;html=1;" edge="1" parent="1" source="b8eeqvod4poeso2Xze_0-169" target="b8eeqvod4poeso2Xze_0-173">
          <mxGeometry relative="1" as="geometry" />
        </mxCell>
        <mxCell id="b8eeqvod4poeso2Xze_0-169" value="hold dice 5:&lt;div&gt;d5&lt;/div&gt;&lt;div&gt;chce&lt;/div&gt;" style="shape=parallelogram;perimeter=parallelogramPerimeter;whiteSpace=wrap;html=1;fixedSize=1;" vertex="1" parent="1">
          <mxGeometry x="80" y="630" width="115" height="50" as="geometry" />
        </mxCell>
        <mxCell id="b8eeqvod4poeso2Xze_0-176" value="" style="edgeStyle=orthogonalEdgeStyle;rounded=0;orthogonalLoop=1;jettySize=auto;html=1;" edge="1" parent="1" source="b8eeqvod4poeso2Xze_0-173" target="b8eeqvod4poeso2Xze_0-175">
          <mxGeometry relative="1" as="geometry" />
        </mxCell>
        <mxCell id="b8eeqvod4poeso2Xze_0-177" value="False" style="edgeLabel;html=1;align=center;verticalAlign=middle;resizable=0;points=[];" vertex="1" connectable="0" parent="b8eeqvod4poeso2Xze_0-176">
          <mxGeometry x="-0.1155" y="-6" relative="1" as="geometry">
            <mxPoint x="-13" as="offset" />
          </mxGeometry>
        </mxCell>
        <mxCell id="b8eeqvod4poeso2Xze_0-180" value="" style="edgeStyle=orthogonalEdgeStyle;rounded=0;orthogonalLoop=1;jettySize=auto;html=1;" edge="1" parent="1" source="b8eeqvod4poeso2Xze_0-173" target="b8eeqvod4poeso2Xze_0-179">
          <mxGeometry relative="1" as="geometry" />
        </mxCell>
        <mxCell id="b8eeqvod4poeso2Xze_0-173" value="Chce !=&#39;y&#39; &amp;amp;&amp;amp;&lt;div&gt;Chce !=&#39;n&#39;&lt;/div&gt;" style="rhombus;whiteSpace=wrap;html=1;" vertex="1" parent="1">
          <mxGeometry x="86" y="730" width="102.5" height="95" as="geometry" />
        </mxCell>
        <mxCell id="b8eeqvod4poeso2Xze_0-186" value="" style="edgeStyle=orthogonalEdgeStyle;rounded=0;orthogonalLoop=1;jettySize=auto;html=1;" edge="1" parent="1" source="b8eeqvod4poeso2Xze_0-175" target="b8eeqvod4poeso2Xze_0-185">
          <mxGeometry relative="1" as="geometry" />
        </mxCell>
        <mxCell id="b8eeqvod4poeso2Xze_0-189" value="" style="edgeStyle=orthogonalEdgeStyle;rounded=0;orthogonalLoop=1;jettySize=auto;html=1;" edge="1" parent="1" source="b8eeqvod4poeso2Xze_0-175" target="b8eeqvod4poeso2Xze_0-188">
          <mxGeometry relative="1" as="geometry" />
        </mxCell>
        <mxCell id="b8eeqvod4poeso2Xze_0-175" value="Chce == &#39;Y&#39; || Chce == &#39;y&#39;" style="rhombus;whiteSpace=wrap;html=1;" vertex="1" parent="1">
          <mxGeometry x="92.25" y="890" width="92.75" height="100" as="geometry" />
        </mxCell>
        <mxCell id="b8eeqvod4poeso2Xze_0-181" style="edgeStyle=orthogonalEdgeStyle;rounded=0;orthogonalLoop=1;jettySize=auto;html=1;exitX=1;exitY=0.5;exitDx=0;exitDy=0;entryX=0.5;entryY=0;entryDx=0;entryDy=0;" edge="1" parent="1" source="b8eeqvod4poeso2Xze_0-179" target="b8eeqvod4poeso2Xze_0-173">
          <mxGeometry relative="1" as="geometry">
            <Array as="points">
              <mxPoint x="560" y="778" />
              <mxPoint x="560" y="710" />
              <mxPoint x="137" y="710" />
            </Array>
          </mxGeometry>
        </mxCell>
        <mxCell id="b8eeqvod4poeso2Xze_0-179" value="Invalid Input. Input &#39;Y&#39; or &#39;N&#39;:&lt;div&gt;Chce&lt;br&gt;&lt;/div&gt;" style="shape=parallelogram;perimeter=parallelogramPerimeter;whiteSpace=wrap;html=1;fixedSize=1;" vertex="1" parent="1">
          <mxGeometry x="270" y="741.25" width="260.25" height="72.5" as="geometry" />
        </mxCell>
        <mxCell id="b8eeqvod4poeso2Xze_0-182" value="True" style="text;html=1;align=center;verticalAlign=middle;resizable=0;points=[];autosize=1;strokeColor=none;fillColor=none;" vertex="1" parent="1">
          <mxGeometry x="185" y="748" width="50" height="30" as="geometry" />
        </mxCell>
        <mxCell id="bcFSaWWAxQXnIy0zXnMh-3" style="edgeStyle=orthogonalEdgeStyle;rounded=0;orthogonalLoop=1;jettySize=auto;html=1;" edge="1" parent="1" source="b8eeqvod4poeso2Xze_0-185" target="bcFSaWWAxQXnIy0zXnMh-1">
          <mxGeometry relative="1" as="geometry" />
        </mxCell>
        <mxCell id="b8eeqvod4poeso2Xze_0-185" value="h5 = true" style="rounded=1;whiteSpace=wrap;html=1;" vertex="1" parent="1">
          <mxGeometry x="286.37" y="920" width="88.63" height="40" as="geometry" />
        </mxCell>
        <mxCell id="b8eeqvod4poeso2Xze_0-187" value="True" style="text;html=1;align=center;verticalAlign=middle;resizable=0;points=[];autosize=1;strokeColor=none;fillColor=none;" vertex="1" parent="1">
          <mxGeometry x="185" y="908" width="50" height="30" as="geometry" />
        </mxCell>
        <mxCell id="bcFSaWWAxQXnIy0zXnMh-2" value="" style="edgeStyle=orthogonalEdgeStyle;rounded=0;orthogonalLoop=1;jettySize=auto;html=1;" edge="1" parent="1" source="b8eeqvod4poeso2Xze_0-188" target="bcFSaWWAxQXnIy0zXnMh-1">
          <mxGeometry relative="1" as="geometry" />
        </mxCell>
        <mxCell id="b8eeqvod4poeso2Xze_0-188" value="h5 = false" style="rounded=1;whiteSpace=wrap;html=1;" vertex="1" parent="1">
          <mxGeometry x="83.61999999999999" y="1040" width="111.38" height="50" as="geometry" />
        </mxCell>
        <mxCell id="b8eeqvod4poeso2Xze_0-190" value="False" style="text;html=1;align=center;verticalAlign=middle;resizable=0;points=[];autosize=1;strokeColor=none;fillColor=none;" vertex="1" parent="1">
          <mxGeometry x="95" y="998" width="50" height="30" as="geometry" />
        </mxCell>
        <mxCell id="bcFSaWWAxQXnIy0zXnMh-1" value="page 3 a" style="ellipse;whiteSpace=wrap;html=1;rounded=1;" vertex="1" parent="1">
          <mxGeometry x="290.69" y="1025" width="80" height="80" as="geometry" />
        </mxCell>
      </root>
    </mxGraphModel>
  </diagram>
  <diagram id="5a6Zlmdved-s-TrcHB4J" name="Page-6">
    <mxGraphModel dx="1050" dy="541" grid="1" gridSize="10" guides="1" tooltips="1" connect="1" arrows="1" fold="1" page="1" pageScale="1" pageWidth="827" pageHeight="1169" math="0" shadow="0">
      <root>
        <mxCell id="0" />
        <mxCell id="1" parent="0" />
        <mxCell id="CI6kFqEPrdwtKLPXWpWn-5" value="" style="edgeStyle=orthogonalEdgeStyle;rounded=0;orthogonalLoop=1;jettySize=auto;html=1;" edge="1" parent="1" source="CI6kFqEPrdwtKLPXWpWn-1" target="CI6kFqEPrdwtKLPXWpWn-4">
          <mxGeometry relative="1" as="geometry" />
        </mxCell>
        <mxCell id="CI6kFqEPrdwtKLPXWpWn-1" value="page 6" style="ellipse;whiteSpace=wrap;html=1;aspect=fixed;" vertex="1" parent="1">
          <mxGeometry x="110" y="10" width="80" height="80" as="geometry" />
        </mxCell>
        <mxCell id="CI6kFqEPrdwtKLPXWpWn-7" value="" style="edgeStyle=orthogonalEdgeStyle;rounded=0;orthogonalLoop=1;jettySize=auto;html=1;" edge="1" parent="1" source="CI6kFqEPrdwtKLPXWpWn-4" target="CI6kFqEPrdwtKLPXWpWn-6">
          <mxGeometry relative="1" as="geometry" />
        </mxCell>
        <mxCell id="CI6kFqEPrdwtKLPXWpWn-4" value="End of round&lt;div&gt;Score for this round:&lt;br&gt;&lt;/div&gt;&lt;div&gt;rndscre&amp;nbsp;&lt;/div&gt;&lt;div&gt;points&lt;/div&gt;" style="shape=parallelogram;perimeter=parallelogramPerimeter;whiteSpace=wrap;html=1;fixedSize=1;" vertex="1" parent="1">
          <mxGeometry x="65.5" y="110" width="169" height="60" as="geometry" />
        </mxCell>
        <mxCell id="CI6kFqEPrdwtKLPXWpWn-9" value="" style="edgeStyle=orthogonalEdgeStyle;rounded=0;orthogonalLoop=1;jettySize=auto;html=1;" edge="1" parent="1" source="CI6kFqEPrdwtKLPXWpWn-6" target="CI6kFqEPrdwtKLPXWpWn-8">
          <mxGeometry relative="1" as="geometry" />
        </mxCell>
        <mxCell id="CI6kFqEPrdwtKLPXWpWn-6" value="End of round&lt;div&gt;Score for this round:&lt;br&gt;&lt;/div&gt;&lt;div&gt;rndscre&amp;nbsp;&lt;/div&gt;&lt;div&gt;points&lt;/div&gt;" style="rounded=1;whiteSpace=wrap;html=1;" vertex="1" parent="1">
          <mxGeometry x="90" y="250" width="120" height="60" as="geometry" />
        </mxCell>
        <mxCell id="CI6kFqEPrdwtKLPXWpWn-11" value="" style="edgeStyle=orthogonalEdgeStyle;rounded=0;orthogonalLoop=1;jettySize=auto;html=1;" edge="1" parent="1" source="CI6kFqEPrdwtKLPXWpWn-8" target="CI6kFqEPrdwtKLPXWpWn-10">
          <mxGeometry relative="1" as="geometry" />
        </mxCell>
        <mxCell id="CI6kFqEPrdwtKLPXWpWn-21" value="" style="edgeStyle=orthogonalEdgeStyle;rounded=0;orthogonalLoop=1;jettySize=auto;html=1;" edge="1" parent="1" source="CI6kFqEPrdwtKLPXWpWn-8" target="CI6kFqEPrdwtKLPXWpWn-20">
          <mxGeometry relative="1" as="geometry" />
        </mxCell>
        <mxCell id="CI6kFqEPrdwtKLPXWpWn-8" value="rnd == 13" style="rhombus;whiteSpace=wrap;html=1;rounded=1;" vertex="1" parent="1">
          <mxGeometry x="110" y="380" width="80" height="80" as="geometry" />
        </mxCell>
        <mxCell id="CI6kFqEPrdwtKLPXWpWn-16" value="" style="edgeStyle=orthogonalEdgeStyle;rounded=0;orthogonalLoop=1;jettySize=auto;html=1;" edge="1" parent="1" source="CI6kFqEPrdwtKLPXWpWn-10" target="CI6kFqEPrdwtKLPXWpWn-15">
          <mxGeometry relative="1" as="geometry" />
        </mxCell>
        <mxCell id="CI6kFqEPrdwtKLPXWpWn-10" value="ascore = (ttlScre / 13.0f)&lt;div&gt;y = round(ascore)&lt;br&gt;&lt;/div&gt;" style="whiteSpace=wrap;html=1;rounded=1;" vertex="1" parent="1">
          <mxGeometry x="234.5" y="390" width="160" height="60" as="geometry" />
        </mxCell>
        <mxCell id="CI6kFqEPrdwtKLPXWpWn-18" value="" style="edgeStyle=orthogonalEdgeStyle;rounded=0;orthogonalLoop=1;jettySize=auto;html=1;" edge="1" parent="1" source="CI6kFqEPrdwtKLPXWpWn-15" target="CI6kFqEPrdwtKLPXWpWn-17">
          <mxGeometry relative="1" as="geometry" />
        </mxCell>
        <mxCell id="CI6kFqEPrdwtKLPXWpWn-15" value="final score and average score" style="shape=parallelogram;perimeter=parallelogramPerimeter;whiteSpace=wrap;html=1;fixedSize=1;rounded=1;" vertex="1" parent="1">
          <mxGeometry x="450" y="390" width="120" height="60" as="geometry" />
        </mxCell>
        <mxCell id="CI6kFqEPrdwtKLPXWpWn-23" style="edgeStyle=orthogonalEdgeStyle;rounded=0;orthogonalLoop=1;jettySize=auto;html=1;entryX=1;entryY=0.5;entryDx=0;entryDy=0;" edge="1" parent="1" source="CI6kFqEPrdwtKLPXWpWn-17" target="CI6kFqEPrdwtKLPXWpWn-20">
          <mxGeometry relative="1" as="geometry">
            <Array as="points">
              <mxPoint x="680" y="580" />
            </Array>
          </mxGeometry>
        </mxCell>
        <mxCell id="CI6kFqEPrdwtKLPXWpWn-17" value="final score and average score" style="whiteSpace=wrap;html=1;rounded=1;" vertex="1" parent="1">
          <mxGeometry x="620" y="390" width="120" height="60" as="geometry" />
        </mxCell>
        <mxCell id="CI6kFqEPrdwtKLPXWpWn-19" value="True" style="text;html=1;align=center;verticalAlign=middle;resizable=0;points=[];autosize=1;strokeColor=none;fillColor=none;" vertex="1" parent="1">
          <mxGeometry x="184.5" y="390" width="50" height="30" as="geometry" />
        </mxCell>
        <mxCell id="CI6kFqEPrdwtKLPXWpWn-20" value="page 2 a" style="ellipse;whiteSpace=wrap;html=1;rounded=1;" vertex="1" parent="1">
          <mxGeometry x="110" y="540" width="80" height="80" as="geometry" />
        </mxCell>
        <mxCell id="CI6kFqEPrdwtKLPXWpWn-22" value="false" style="text;html=1;align=center;verticalAlign=middle;resizable=0;points=[];autosize=1;strokeColor=none;fillColor=none;" vertex="1" parent="1">
          <mxGeometry x="110" y="488" width="50" height="30" as="geometry" />
        </mxCell>
      </root>
    </mxGraphModel>
  </diagram>
</mxfile>
